<svg id="Layer_1" data-name="Layer 1" xmlns="http://www.w3.org/2000/svg" viewBox="0 0 2973.14 822.42"><defs><style>.cls-1,.cls-2{fill:#fff;stroke:#fff;}.cls-1{stroke-miterlimit:10;}.cls-2{stroke-linecap:round;stroke-linejoin:round;stroke-width:2px;}</style></defs><title>Untitled-2</title><path class="cls-1" d="M996.74,1070.25a50.55,50.55,0,0,0-5.19,0c-4.62.43-8.65-1.48-12.75-3a96.42,96.42,0,0,1-9.32-4c-3-1.55-6.16-2.89-9.19-4.36-5.27-2.56-10.79-4.69-15.63-8.23-2.83-2.07-6.25-3.4-9.36-5.14-3.94-2.21-7.46-5.09-11.58-7-3.93-1.79-7.76-3.78-11.67-5.62-2.65-1.24-5.5-2.12-8-3.61-6.42-3.83-13.48-6.25-20.45-8.54-4.67-1.53-9.44-3.62-14.61-3.4-1.84-1.48-4.26-.36-6-1.14-2.1-.92-4.21-.32-6.12-.94-3.68-1.19-7.56-.18-11.07-1.06-5.41-1.37-10.76-.62-16.13-.81s-10.66-.05-16,0c-2.57,0-4.89,1.53-7.59,1s-5,.81-7.53,1.21a42.88,42.88,0,0,0-6.73,1.71c-2.34.8-4.93,1-7.13,2.09-5.85,2.81-11.91,5.17-17.31,8.95-6.24,4.37-12.63,8.45-18.46,13.41-3.42,2.9-6.95,5.72-10.5,8.45-3.28,2.52-5.86,5.73-9.09,8.18-5.68,4.32-10,10-15.52,14.46-8.25,6.71-15.17,14.72-22.84,22-8.75,8.3-17.27,16.86-26.17,25-5,4.6-10.2,9.08-15.48,13.36a182.84,182.84,0,0,1-19.09,12.95,121.29,121.29,0,0,1-14.34,7.6c-7.73,3.47-15.62,6.55-23.58,9.45-4.19-.11-7.9,2.63-12.17,2-2.53,1.68-5.5.36-8.07,1.08-4.69,1.33-9.52.11-14.08,1-7.72,1.58-15.5-.12-23.09,1-9.72,1.42-19.49-.15-29.09,1-9.4,1.17-18.74.57-28.1.78s-18.74-.7-28,.21c-14.38,1.43-28.79-.25-43.08,1.05-8.91.81-17.74.52-26.61.73s-17.66.05-26,.05c-4.58-1.74-7-5-9.31-8.65-1.89-3-4.65-5.37-6.68-8.26-3.3-4.69-5.49-10-8-15.14a158.48,158.48,0,0,1-9.75-25.41c-2.1-7-3.62-14.2-5.41-21.29a167.44,167.44,0,0,0-7.35-23.41c-1.94-4.66-4.06-9.31-5.67-14.15-1.08-3.27-3.53-6.14-5.19-9.32A86.15,86.15,0,0,0,290,1036.3c-2.7-3.75-5.46-7.49-8.51-11s-6.61-6.59-9.84-9.95c-7.91-8.23-17.44-14.09-27.79-18.62-3.93-1.73-7.86-3.58-11.93-5a36.45,36.45,0,0,0-9.48-2.34c-3.56-.21-6.95-1.86-10.58-1.13-7.45-2.07-15.1-1.19-22.58-.79-5.86.32-11.77.29-17.58,1a39,39,0,0,0-12,3.58c-6.18,2.87-12.08,6.09-17,10.95-2.06,2-4.85,3.47-6.55,5.74-5,6.74-10.88,12.84-15.46,20-3,4.63-6.63,9-10,13.37-4.37,5.64-8.47,11.47-12.76,17.16-6.08,8.08-10.94,17-17.26,24.88-3.24,4-5.91,8.54-8.92,12.77a52.71,52.71,0,0,1-3.75,4.44c-2.22,2.5-3.87,5.43-5.9,8-3,3.74-7.31,5.52-12,7-7.3,2.29-13.58.17-19.39-3.33-4.13-2.49-7.06-6.58-6.69-12.07a42.61,42.61,0,0,0,0-6.49c-.43-4.77,1.46-8.94,3-13.26a69.3,69.3,0,0,1,5-11.91c2.86-5,5.46-10.1,8.48-15C43.79,1049,47.54,1044,51,1038.72c3.12-4.77,6.67-9.21,9.94-13.87,3.64-5.19,7.91-9.91,11.41-15.24,2-3.09,5.26-5.41,7.22-8.54,1.71-2.72,4.14-4.58,6.14-6.93s3.75-5,6.07-6.92,4-5.09,6.67-6.59c2.84-1.62,4.42-4.37,6.95-6.12s5.1-3.88,8-4.79a23.36,23.36,0,0,0,5.72-3.08c5.87-3.86,11.94-7.36,18-10.9a230.26,230.26,0,0,1,20.63-10.56c7.17-3.3,14.34-6.54,22.24-8,1.85-.34,4.09-.11,5.5-1,2-1.29,3.84-.44,5.7-.81,2-.39,3.89-1.3,6.09-1.07,1.86.2,3.91.56,5.6-.91.19-.16.65,0,1,0,6.75.75,13.34-1.37,20.09-1,6.21.3,12.33-1.68,18.58-1,3.07-1.52,6.49-.38,9.56-1.11,5.55-1.32,11.24-1.61,16.83-2.65a179.19,179.19,0,0,0,22.94-6.32,34.16,34.16,0,0,0,8.14-4.44,83.24,83.24,0,0,0,8.71-6.7c2.87-2.53,5.46-5.38,8.17-8.09,1.81-1.81,3.52-3.58,4.36-6.2a7.35,7.35,0,0,1,3.61-4c2.09-1.2,3.54-3.69,5-5.78,3.13-4.43,6.61-8.59,9.86-12.92s6.58-8.19,9.7-12.42c3.75-5.07,8.34-9.5,12.2-14.49,1.59-2.06,4.39-2.31,5.59-5.07,1-2.27,3.44-4,5.42-5.74,5.08-4.53,10-9.33,15.5-13.32,4-2.9,8-5.92,12.67-7.94,3.11-1.36,5.92-3.38,9-4.86,4.57-2.22,9.33-4,14-5.92,6.07-2.47,12.5-3.55,18.63-5.7,1.88-.65,4-.37,6.06-1,2.54-.83,5.49-.38,8-1.23,2.89-1,6-.16,8.56-1.08,2.8-1,5.57-.13,8.13-.89,5.34-1.59,10.84-.07,16.09-1,7.54-1.4,15.07-.67,22.6-.84s15-.17,22.5,0c6.37.14,12.84,0,19.06,1.12,8.21,1.47,16.39,3.37,24.16,6.76,6.51,2.84,12.79,6.15,19.29,8.94s12.9,5.94,19.18,9.21c4.66,2.42,9.13,5.29,14,7.34,7.82,3.33,15.26,7.41,23,11,6.56,3.06,13.18,6,19.83,8.83,4.67,2,9.42,3.81,14.13,5.73a18,18,0,0,1,1.82,1h4.3c3.33-1.35,5.67-3.42,6.68-6.34A86.72,86.72,0,0,0,702,835.05a49.56,49.56,0,0,0,1-5.09c.17-1.64-.39-3.47.12-5,1.7-5,.89-10.08.8-15.1,0-3.46,1.06-6.68,1.15-10.08.18-6.88-1.78-13.66-1-20.56-1.63-4.79-1.6-9.88-2.81-14.79a113.12,113.12,0,0,0-4.44-14.19,74.61,74.61,0,0,0-7.31-14c-2.92-4.4-5.27-9.18-8.42-13.48-4-5.47-7.91-11-11.86-16.57-2.38-3.34-4.69-6.74-7.18-10-2.82-3.7-5.82-7.26-8.72-10.89-3.19-4-6.12-8.16-9.35-12.08-2.75-3.35-5.36-6.78-8-10.2-5.16-6.66-10.2-13.41-15.28-20.13-5.35-7.08-10.75-14.11-15.4-21.64-3.92-6.34-8.3-12.41-11.42-19.24-1.23-2.67-3.25-5-4.5-7.64-3.17-6.72-5.77-13.6-5.35-21.28.22-4-.08-8,.08-12,.11-2.54.75-5,.92-7.59s-.55-5.18.19-7.44c.94-2.91.31-5.83.93-8.6,1.37-6.06,1.33-12.41,4.56-18.11,1.47-2.6,1.65-6,2.35-9,1.39-6.05,2.61-12.14,4.77-18,1.12-3.05,1.16-6.5,2.34-9.52,1.09-2.78,1.84-6.16,5.47-7.28,3.61-7.53,7.1-15.26,11-22.78,3.28-6.34,6.8-12.56,10.62-18.58,3.28-5.16,6.13-10.59,10.12-15.34,3.63-4.35,6.67-9.2,10-13.82a4,4,0,0,1,.35-.36A236.38,236.38,0,0,1,670.7,380.9a119.5,119.5,0,0,1,28.63-18.85,85.38,85.38,0,0,1,15.38-5.11c3-.79,6.08-1.49,9.17-2s6.51-.26,9.55-1.13c4.71-1.35,9.73-.92,14.31-2.85.85-.36,2-.05,3-.05,14.16,0,28.33-.05,42.5,0a66.4,66.4,0,0,1,7.08,1c2.21.26,4.55-.56,6.62,1,.43.32,1.3,0,2,.05,2.07.07,4.08-.18,6.13.9,1.6.84,3.61,0,5.64.87s4.64.51,7,1.16c3.63,1,7.42,1.37,11.05,2.32a284.61,284.61,0,0,1,27.37,8.75c3,1.13,6.08,2.25,9,3.6,8.25,3.82,16.64,7.4,24.62,11.74a165,165,0,0,1,20.23,12.84c5.33,4,10.4,8.38,15.92,12.14a2.38,2.38,0,0,1,.36.35c6.7,6.36,13.57,12.54,20,19.13a186.45,186.45,0,0,1,14.13,16.12A153.55,153.55,0,0,1,988,471.49c2.11,4.46,4.42,8.82,6.46,13.31,2.35,5.19,4.62,10.41,6.71,15.71s3.88,10.39,5.65,15.64c.71,2.08-.53,4.57,1.17,6.51-.61,5.38,2.12,10.33,2.07,15.33,1,1.89,1.82,3.55,2.93,5.69,0,4.42.25,9.42-.06,14.37-.43,6.76.71,13.4,1.26,20.06.25,3,.22,6.17.95,9.06a46.77,46.77,0,0,1,.89,8.61c.11,1.71.73,3.38.93,5.09s-.35,3.26,1,4.6c.16.16,0,.64,0,1,.33,4.19.37,8.44,1.11,12.56.46,2.54.37,5.21,1.08,7.54s.11,5,1,7.07c.92,2.28.26,4.58,1,6.6.79,2.23.73,4.4.92,6.62a33.92,33.92,0,0,0,.94,3.59c.24,1.23-.17,2.44.8,3.71.65.85.07,2.56.25,3.86s.87,2.38.92,3.59a18.29,18.29,0,0,0,2,6.69c1.32,3,2,6.18,4,8.85.32.43,0,1.29,0,1.92,1.93,2.23,4.12,4.13,5.78,6.62,1.38,2.05,4,3.23,5.8,5.05,8.54,8.52,18.48,15.22,28.45,21.87,4.3,2.86,8.61,5.72,13,8.46,2.63,1.63,5.38,3.06,8.12,4.53,7.5,4,14.84,8.38,22.59,11.84,4,1.8,8.07,3.79,12.32,5.27s8.36,3.2,12.41,5c11.3,5.07,23.15,8.54,34.84,12.41,6.3,2.09,12.57,4.43,19,6,6.94,1.74,13.75,4,20.76,5.53,6.27,1.4,12.55,2.69,18.84,4,2.23.46,4.78.06,6.52,1,2.18,1.21,4.29.12,6.15.89,2.85,1.16,5.85.36,8.59,1,3.39.84,6.87.23,10.08,1,3.91,1,7.87.13,11.59,1,5.06,1.16,10.2.05,15.09,1,7.06,1.4,14.16,0,21.09,1,10.55,1.54,21.16-.17,31.58,1.07,8.75,1,17.42.55,26.11.76s17.74-.67,26.49.21c13.55,1.38,27.07.58,40.6.79,13.83.22,27.67,0,41.5,0h41c13.66,0,27.39-.82,41,.21,16.06,1.21,32.08.48,48.1.73s32,.06,48,.06h338c16.17,0,32.38-.79,48.49.19,21.05,1.28,42.07.51,63.1.75s42,.06,63,.06c8.3,1.85,16.72.8,25.08,1s16.67,0,25,0c8.5,0,17.07-.68,25.48.19,8.73.91,17.41.65,26.11.78s17.73-.61,26.48.24c6.89.67,13.73.65,20.6.77s13.77-.7,20.48.18c11.39,1.51,22.82-.26,34.09,1,10.4,1.19,20.82-.23,31.08,1,8.41,1,16.84-.19,25.08,1,8.08,1.16,16.17-.14,24.09,1,6.74,1,13.51-.08,20.08,1,6.74,1.09,13.52-.07,20.09,1,6.08,1,12.18,0,18.09,1,5.74,1,11.52,0,17.08,1,5.41,1,10.85,0,16.08,1,5.08,1,10.2,0,15.09,1s9.84.08,14.59,1c4.9.91,9.86.11,14.58,1s9.18.07,13.59,1c4.56.91,9.21.1,13.57,1.05,4.1.88,8.09.66,12.13.77,2.26.06,4.19,1.52,6.6,1.11,2.1-.35,4.51-.63,6.44,0,3.88,1.35,7.85.22,11.61,1,4.54.93,9.19.19,13.56,1.1,3.44.71,6.77.5,10.13.81,2.54.24,5.05.69,7.59,1s5.23-.7,7.6,1c.22.16.65,0,1,0,6.25-.68,12.38.87,18.58,1.22,4.34.25,8.85.09,13.05,1,3.44.73,6.77.5,10.13.82,2.37.23,4.71.77,7.09.94s4.91-.6,6.94.19c3.09,1.19,6.11.53,9.14.87,2.2.24,4.38.78,6.59.94s4.85-.53,7,.16c3.72,1.24,7.52.21,11.1,1,4.05.89,8.22.14,12.06,1.08,3.61.88,7.1.64,10.64.77,2.58.09,4.88,1.43,7.59,1.13,2.33-.26,4.89-.76,7.09.88.22.16.66,0,1,0,6.25-.67,12.34,1.48,18.58,1,2.27-.17,4.19,1.47,6.6,1.06,2.11-.35,4.53-.63,6.44.06,3.23,1.16,6.43.61,9.63.9,2,.18,4.05.77,6.09.93s4.55-.54,6.45.17c3.07,1.14,6.1.61,9.13.89,2.37.22,4.72.77,7.09.94s4.92-.6,6.94.19c2.77,1.09,5.45.54,8.14.86,2,.25,4.05.79,6.09,1s4.53-.51,6.46.16c2.89,1,5.86.3,8.59,1,2.9.74,5.91.23,8.57,1s5.58.19,8.09,1c2.25.7,4.49.43,6.61,1s4.18.44,6.08,1c5.18,1.54,10.58,1.62,15.83,2.7,3.57.74,7,1.22,10.28,3.07a10.19,10.19,0,0,1,2.66,1.94c3.91,4.36,7.76,8.78,9.74,14.45a6.15,6.15,0,0,0,1,1.32c0,7.28-.11,14.77,0,22.24.09,4.45-2,8-4.6,11.09-6.66,8-12.09,9.82-22.69,13.93-3,1.16-6,2.39-9.17,3.27-3.42,1-6.88,2-10.33,2.71-5.7,1.23-11.33,2.76-17.22,3.3a56.63,56.63,0,0,0-8.21,1.71c-2.77.7-5.84.34-8.52,1.22-2.08.67-4.24.31-6.08,1-2.08.77-4.24.32-6.09,1-2.07.76-4.3.25-6.07,1-2.26,1-4.58.26-6.6,1s-4.2.36-6.1,1c-5,1.59-10.38.89-15.32,2.83-1.3.51-3,0-4.46.11s-2.81,1.08-4.08.87c-2.11-.35-3.65,1.13-5.6,1.13a15.4,15.4,0,0,0-5.66.78c-2.26.85-5,.34-7.55,1-3.37.91-7,.76-10.55,1.17-1.71.19-3.39.66-5.08,1s-3.29-.65-4.65,1c-.27.33-1.28,0-1.94.06-2.86.31-5.72.79-8.59,1s-5.26,1.75-8.08,1c-1.81,1.67-4.05.72-6.08,1-1.71.24-3.39.67-5.09,1s-3.66-.75-5.13,1c-.14.16-.63,0-1,0a24.09,24.09,0,0,0-7.12.87c-2.06.64-4.34.39-6.59,1-3.55.91-7.36.77-11,1.18-1.71.19-3.4.64-5.09,1s-3.65-.76-5.14.9c-.16.18-.62.07-.95.1-3.86.33-7.73.61-11.58,1-1.71.18-3.38.72-5.09,1s-3.26-.39-4.62,1c-.25.25-1,0-1.46,0a20.27,20.27,0,0,0-7.13.89c-2,.75-4.54-.54-6.56,1.08-.21.17-.65,0-1,0-4.09.33-8.18.61-12.26,1-1.71.18-3.38.74-5.09.94s-3.29-.36-4.6,1c-.08.09-.32,0-.49,0-4.19.33-8.39.61-12.58,1-2,.2-4.07.6-6.09,1-1.86.35-4-.93-5.61,1-.14.16-.64,0-1,0-4.2.33-8.39.68-12.59,1-1.9.14-3.53,1.36-5.6,1.08-1.69-.24-3.57-.54-5.1.89-.27.25-1,0-1.47,0-4.36.33-9-.08-13,1.21s-8.13-.5-11.75,1.78c-.11.07-.32,0-.49,0-5,.33-10.06.61-15.08,1-2,.17-4.06.68-6.09,1s-4.27-.67-6.11,1c-.18.17-.65.06-1,0-5.59-.69-11,1.45-16.58,1-2.42-.19-4.55,1.4-7.1,1.08-2.17-.28-4.56-.63-6.58.9-.11.08-.33,0-.49,0-5.2.33-10.4.61-15.59,1-2.37.19-4.72.67-7.09,1-2.2.28-4.58-.7-6.6,1-.19.16-.65,0-1,0-5.36.33-10.73.58-16.08,1-2.2.19-4.26,1.19-6.6,1s-4.56-.56-6.59.93c-.1.08-.32,0-.49,0-5.19.33-10.39.61-15.58,1-2.37.19-4.72.67-7.09,1-2.21.27-4.58-.64-6.6,1-.2.16-.65,0-1,0-5.37.33-10.74.57-16.09,1-2.2.19-4.26,1.19-6.59,1s-4.56-.53-6.59.93c-.11.08-.33,0-.49,0-5.53.33-11.06.61-16.59,1-2.37.18-4.72.68-7.09,1-2.2.26-4.57-.61-6.6,1-.2.17-.65.06-1,0-5.59-.68-11,1.35-16.59,1.07-2-.09-4,.74-6.08.9s-4.61-.61-6.44.18c-2.76,1.21-5.45.54-8.15.87-2.2.27-4.38.79-6.59.94s-4.87-.55-6.94.18c-3.24,1.14-6.43.76-9.64.83-2.58.05-4.88,1.43-7.59,1.13-2.33-.26-4.9-.77-7.09.89-.1.08-.33,0-.49,0-5.43-.75-10.7,1.46-16.08.93-2.7-.27-5,1.23-7.59,1.1s-5.2-.63-7.45.11c-3.25,1.07-6.43.6-9.63.88-2.05.19-4.05.78-6.1.94s-4.54-.55-6.44.17c-3.24,1.21-6.44.57-9.64.88-2.37.24-4.71.79-7.09.95s-5.24-.63-7.43.19c-3.11,1.16-6.12.51-9.15.85-2.53.29-5,.8-7.59.95s-5.54-.6-8,.19c-3.74,1.23-7.44.51-11.13.87-2.54.24-5.05.77-7.59.94s-5.22-.59-7.45.19c-3.41,1.19-6.76.71-10.13.82-7.2.24-14.35,1.64-21.59,1-4.24,1.86-8.81.24-13.06,1.11-4.88,1-9.85.18-14.58,1.07-4.58.86-9.16.13-13.59,1-4.22.77-8.64,0-12.54,1.11-3.6,1-7.21.31-10.82,1.52-3.3,1.1-7.26.23-10.92.23-3.84,0-7.67,0-11.5,0-3.24,0-6.25,1.46-9.6,1.09s-6.8-.7-10,.05c-6,1.44-12.17,0-18.09,1-7.22,1.21-14.51-.05-21.58,1-7.58,1.17-15.16-.11-22.6.94-11.37,1.61-22.81-.18-34.08,1.07-8.24.92-16.41.59-24.61.77s-16.33.06-24.5,0c-3.4,0-6.6,1.42-10.09,1.09s-7.14-.71-10.46.06c-6.22,1.44-12.49,0-18.6,1-6.88,1.05-13.83.1-20.57,1.1-5.26.77-10.5,0-15.6.89-6.54,1.1-13.18.06-19.57,1.11-5.27.87-10.43.35-15.62.8-2.87.25-5.72.78-8.59.94s-5.66,0-8.5,0c-3,0-6.11-.53-9,.1-7.86,1.74-15.75.74-23.61.81-7.56.07-15,1.54-22.59,1.17s-15.1-.84-22.47.14c-7.08.94-14.08.54-21.11.74s-14.05-.47-21,.14c-19.2,1.67-38.4.5-57.6.9-10.81,2.1-21.72.69-32.59.94s-21.66,0-32.49.09c-6.71.06-13.34,1.31-20.09,1s-13.67-.06-20.5-.06h-20.5c-6.83,0-13.76-.72-20.48.16-9.89,1.31-19.74.59-29.61.79-10.16.2-20.33,0-30.49,0-10,0-20-.58-30,.12-22.69,1.61-45.4.47-68.09.88-7.46,1.81-15,.82-22.59,1s-15.42-.7-23,.2c-11.55,1.38-23.15-.26-34.58,1-9.08,1-18.16-.23-27.08,1-7.08,1-14.17-.08-21.09,1-5.74.88-11.5.06-17.08,1-5.07.84-10.15.2-15.09,1-3.89.62-7.86.18-11.57,1s-7.67-.12-11.06,1c-3.92,1.33-8.11-.42-11.74,1.8-3.95-.75-7.78.57-11.55,1.18-4.94.79-10.07.68-14.84,2.7a18.19,18.19,0,0,1-5.55.92c-3.86.27-7.42,1.64-11.13,2.35a120,120,0,0,0-16.44,4.89c-4.95,1.7-9.75,3.82-14.63,5.71-4.6,1.77-9.31,3.28-13.8,5.29s-9.2,2.66-13.49,4.89a10.4,10.4,0,0,1-3.68.59C1003,1066.16,1000.69,1069,996.74,1070.25Zm-639.08,90.92c7.17,0,14.65.18,22.13-.05s14.8,1.1,22.08-.95c14.86-.4,29.72.54,44.6-.84,9.09-.85,18.32,0,27.49-.21s18.39.78,27.61-.81c4.53-.78,9.32.09,14-.2,4.36-.29,8.65.45,13.15-.69s9.28-.4,13.94-.21c7.23.29,14.34-1.79,21.58-1a.84.84,0,0,0,.5,0c3.63-2.18,8,.2,11.67-2,4.27.58,8.07-1.58,12.12-2.26,2.55-.43,5.21-1.89,7.84-2.63,2.87-.8,5.1-2.82,8.18-3.31,2.64-.42,5.09-2.13,7.56-3.39,3.58-1.83,7.25-3.53,10.63-5.69,6.35-4.07,12.81-8.06,18.67-12.77,5.16-4.16,10.1-8.66,15.12-13,5.82-5.08,11.09-10.77,16.86-15.94,11.47-10.27,21.41-22.15,33.24-32.08,4.9-4.11,9.06-9,14-13.16,5.34-4.49,10.37-9.34,15.86-13.7,4.63-3.69,9.18-7.45,14-10.92a120.83,120.83,0,0,1,13.8-8.94c10-5.31,11.86-6.51,25.26-10.26,3.76-1.06,7.58-1.8,11.35-2.67a60.54,60.54,0,0,1,12.06-1.08c6.33-.16,12.66-.14,19,0s12.42-.54,18.61.88c3.18.73,6.54.29,9.88.89,4.34.79,8.75,1.53,13.14,2.09,5,.64,9.72,2.34,14.49,3.76a143.18,143.18,0,0,1,14.67,5.6c3,1.25,6.33,1.92,8.61,4.55,4.38.74,7.9,3.47,11.82,5.24a86.72,86.72,0,0,1,13.14,6.86,225.05,225.05,0,0,0,20.58,12c8.83,4.68,18.09,8.59,27.25,12.63a70,70,0,0,0,8.63,2.67c1.64-1,2.57-1.63,3.52-2.19a10.56,10.56,0,0,1,2.85-1.54,52.38,52.38,0,0,0,7.33-1.66c4.47-1.69,9.14-2.8,13.52-4.74s9.2-3.53,13.8-5.31c4.88-1.89,9.69-4,14.64-5.69a121.43,121.43,0,0,1,16.44-4.89c3.71-.71,7.22-2.57,11.14-2.15,1.66-1.41,3.87-.42,5.54-1.12,4.77-2,9.9-1.92,14.83-2.7,3.78-.61,7.61-1.93,11.56-1.18,3.62-2.25,7.82-.46,11.74-1.79,3.38-1.14,7.31-.21,11-1s7.69-.33,11.58-1c4.76-.85,9.67-.09,14.59-1,5.73-1,11.67-.13,17.58-1,6.92-1,14,0,21.08-1,8.93-1.2,18,0,27.09-1,11.43-1.29,23,.36,34.58-1,7.56-.9,15.31-.06,23-.2s15,.11,22.61-.77c7.73-.89,15.64-.2,23.47-.2,7.67,0,15.35-.27,23,.08s15.38-1.09,23.09-1.08h29.5c10,0,20,.16,30,0,9.69-.2,19.37.24,29.1-.74s19.65-.21,29.48-.21,19.68-.29,29.5.07,19.36-1.36,29.09-1.13,19.67.23,29.49,0,19.37.19,29.11-.72c10.91-1,22-.53,33-.15s21.7-1.14,32.58-1.19c11.36-.05,22.72.77,34.11-.71,7.38-1,15-.47,22.47-.1s14.71-1,22.09-1.16c8-.13,16.09.95,24.11-.82,2.86-.63,6-.1,9-.1,2.83,0,5.67.13,8.5,0s5.72-.69,8.59-.94c5.18-.45,10.35.07,15.62-.8,6.38-1,13,0,19.56-1.11,5.11-.85,10.35-.12,15.6-.89,6.75-1,13.69-.06,20.57-1.1,6.11-.92,12.38.46,18.6-1,3.32-.77,7-.39,10.46-.06s6.69-1.1,10.1-1.09c8.16,0,16.33.16,24.49,0s16.37.15,24.61-.77c11.27-1.25,22.71.54,34.08-1.07,7.44-1.05,15,.24,22.6-.94,7.07-1.1,14.36.15,21.58-1,5.92-1,12,.24,18.1-1,4.49-.89,9.4.44,13.93-.35a87.83,87.83,0,0,1,13.62-.81c4-.08,8,0,12,0,1.24,0,2.67.57,3.69-.71,1.59,1,3-.48,4.57-.37,1.83.12,3.71-.7,5.58-.87,3.7-.33,7.38.24,11.13-.87,2.6-.78,5.63,0,8.45-.19s5.4-.95,8.09-.9c7.88.14,15.66-1.67,23.55-1.17.11,0,.23-.22.65-.64-1-.1-1.74-.23-2.47-.24-2.5,0-5,0-7.5,0a51.94,51.94,0,0,0-7.49.08,34.07,34.07,0,0,1-6.26.77c-7.59-.36-15,1.41-22.59,1.15-1.16,0-2.49-.34-3.46.1-5.86,2.64-12.24,2.12-18.32,2.68-9.09.83-18.31.22-27.48.19-.19,0-.37-.39-.54-.58l2.7-1.39c1.15,0,2.91.5,4.1-.11,2.84-1.45,6,0,8.54-1.1,3-1.38,5.82-.43,8.69-.76,4.17-.5,8.31-1.57,12.58-1,.16,0,.39.07.49,0,2.33-1.92,5.07-.63,7.59-1s5.05-.72,7.59-1c2.87-.3,5.71.21,8.64-.85,2.21-.8,5-.09,7.44-.18s4.91-1.41,7.59-1c5.58.82,11-.83,16.58-1,1.65-.07,3.27-1,5.09-1s3.38-.75,5.09-.89c5-.42,10.05-.7,15.08-1,.33,0,.76.13,1,0,2-1.44,4.38-1.09,6.59-.92s4.4-.81,6.6-1c3.53-.31,7-.07,10.61-.9s7.34-.23,11.09-1c4.06-.81,8.36-.12,12.57-1.06,3.26-.72,6.72.17,10.11-1a13.73,13.73,0,0,1,6.44,0c2.41.4,4.33-1.25,6.6-1.08,6.24.48,12.34-1.67,18.59-1,.33,0,.77.14,1,0,2.2-1.64,4.76-1.14,7.09-.88,2.71.3,5-1,7.59-1.13,5.54-.22,11.06-.63,16.59-1,.17,0,.38.06.49,0,2-1.4,4.38-1.13,6.59-.94s4.4-.81,6.6-1c5.35-.47,10.72-.71,16.08-1,.33,0,.78.14,1,0,2-1.59,4.42-1.11,6.6-.89,2.38.24,4.36-1,6.59-1.09l15.09-1c.33,0,.79.15,1,0,2-1.8,4.41-.64,6.6-1s4.38-.78,6.59-1c4.69-.41,9.39-.69,14.08-1,.17,0,.39.07.49,0,1.85-1.51,4-.77,6.09-1s4.05-.77,6.1-1c4.68-.41,9.38-.69,14.08-1,.33,0,.82.14,1,0,1.8-1.89,4.08-.64,6.11-1,2.19-.36,4.4-1,6.58-.93,4.59.2,9-1.83,13.59-1.07.16,0,.39.07.49,0,1.67-1.43,3.7-.8,5.59-1s3.71-.77,5.59-.94c4.69-.42,9.39-.7,14.08-1,.33,0,.83.14,1,0,1.62-1.85,3.75-.64,5.61-1,2-.36,4-.78,6.09-1,4.18-.41,8.38-.69,12.58-1,.16,0,.4.07.49,0,1.5-1.36,3.37-1.15,5.09-.93,2,.27,3.71-.83,5.59-1,2.7-.31,5.35.18,8.15-.81,2.59-.92,5.68-.11,8.56-1.08,1.79-.6,4.39.6,5.85-.29,2-1.22,3.84-.71,5.7-.74s3.73-.78,5.59-1c4.17-.53,8.38-.73,12.58-1,.33,0,.81.14,1,0,1.49-1.5,3.41-1.14,5.09-.9,2.08.3,3.68-1.05,5.6-1.08a26.11,26.11,0,0,0,7.62-.87c2.37-.75,5-.06,7.6-1s5.32-.13,8.09-1,5.67-.25,8.57-1c2.39-.66,5-.24,7.59-1s5.34-.25,8.08-1c2.55-.71,5.35-.26,8.09-1,2.55-.69,5.35-.47,8.07-1,4.1-.83,8.36-.8,12.56-1.12.33,0,.81.14,1,0,1.33-1.36,3-.81,4.6-1s3.38-.78,5.09-1c4.19-.41,8.39-.69,12.59-1,.33,0,.83.14,1,0,1.62-1.89,3.75-.68,5.61-1,2-.29,3.86-1.35,6.1-1.09,3.37.39,6.61-1.62,10.07-.93,1.47-1.49,3.38-1.17,5.08-.93,2.06.28,3.7-.92,5.59-1.08,3.87-.31,7.73-.66,11.59-1,.33,0,.83.14,1,0,1.62-1.9,3.75-.67,5.62-1,2-.31,3.86-1.35,6.09-1.1,3.37.38,6.61-1.6,10.08-.93,1.46-1.5,3.38-1.16,5.07-.93,2.07.29,3.69-1,5.6-1.06a22.14,22.14,0,0,0,6.62-.88c2-.66,4.34-.34,6.6-.94s5-.54,7.56-1.07,5.38-.16,8.1-1c2.05-.63,4.36-.18,6.59-1,2-.74,4.32-.11,6.6-.95s5-.38,7.57-1c2.41-.58,5-.62,7.56-1.09,3.47-.65,7-.74,10.57-1.08.31,0,.77,0,.92-.14,1.35-1.54,3.11-.58,4.66-.86s3.38-.77,5.09-1c3.52-.41,7.19-.23,10.54-1.19,2.26-.64,4.73-.08,6.53-1s3.48-.5,5.18-.81,3.38-.75,5.09-1c3.19-.41,6.55-.22,9.53-1.2a27.66,27.66,0,0,1,5.14-.84,48.24,48.24,0,0,1,5.09-.93c3.24-.08,6.28-1.77,9.58-1.05,4.86-2.16,10.27-1.38,15.29-2.9,2.87-.87,6.1-.46,9-1.19,2.38-.59,4.94-.34,7-1.12,1.64-.61,3.13-.5,4.67-.79a25.67,25.67,0,0,1,4.58-.93c2.93,0,5.6-1.78,8.59-1.06,4.92-1.85,10.23-1.81,15.22-3.13,2.4-.63,4.86-.3,7.07-1a77.89,77.89,0,0,1,8.72-1.88c3.66-.76,7.24-2,10.92-2.53,3.22-.48,6.37-2.08,10.49-1-5.52,7.3-12.71,11.21-21.81,14.32,1.92.15,2.78.48,3.43.23,6.72-2.55,13.11-5.61,17.79-11.42a7.79,7.79,0,0,0,2-5.2c-.05-5.31,0-10.62,0-16.32l-9-11.76-8.39-1.38-2.15,2.17a15.35,15.35,0,0,0-4.15.82c-2.64,1-6,.17-8.44,1.35-2.75,1.33-5.67.11-8.34,1.68-1.44.84-3.64.23-5.56,1s-4,.15-6.09,1c-1.79.72-4,.25-6.07,1a28.16,28.16,0,0,1-6.06.94,102.58,102.58,0,0,0-13.16,2.17c-2,.51-4-.44-6.19.81-1.74,1-4.27.18-6.53,1s-4.65.21-7.08,1-5,.38-7.57,1c-3.39.86-7,.8-10.55,1.14a5.06,5.06,0,0,0-1.41.21c-3,1.18-6.17,1.24-9.27,1.72-3.66.58-7.52.22-11,1.18-5.54,1.49-11.3,1.27-16.81,2.81-2.26.63-4.69-.14-7.13.92-2.08.91-4.63,0-7.09,1s-5.29.11-8.08,1c-2.47.75-5.34.58-8,1.11-2.48.49-5,.23-7.61,1-2.39.68-5,.24-7.59,1s-5.34.22-8.08,1c-2.54.73-5.35.24-8.09,1-2.54.7-5.34.26-8.08,1-2.56.69-5.35.37-8.08,1-2.92.68-6,.24-9.09,1-2.9.71-6,0-9.08,1-1.79.61-4.2-.33-5.8.48-1.86.94-3.53.41-5.26.56a30,30,0,0,0-5.61.94c-1.86.52-4.41-.6-5.86.29-2,1.23-3.84.7-5.7.75s-3.73.74-5.59,1c-2.52.36-5,.16-7.62.93s-5.33.31-8.08,1c-3.88,1-8,.83-12,1.15-.5,0-1.14-.19-1.48,0-2.23,1.52-5,.24-7,1.12-2.44,1-4.77.64-7.15.84-.33,0-.78-.13-1,0-1.7,1.39-3.71.8-5.6,1s-3.72.74-5.59.95c-3.52.41-7.17.27-10.55,1.17-2.24.61-4.53.34-6.58,1a24.49,24.49,0,0,1-7.13.87c-.33,0-.82-.12-1,0-1.63,1.85-3.76.6-5.61,1a30.23,30.23,0,0,1-5.59.94c-3.74,0-7.29,1.8-11.08,1.06-2.38,1.48-5.35.21-7.5,1.19s-4.24.21-6.15.88a16.21,16.21,0,0,1-6.11.94c-3.24-.15-6.28,1.72-9.59,1-1.66,1.43-3.68.82-5.58,1s-4.06.89-6.09.92c-3.73,0-7.29,1.79-11.08,1-2.2,1.5-4.93.32-7,1.15-2.44,1-4.76.67-7.14.85-.34,0-.78-.14-1,0-2,1.57-4.55.36-6.56,1.1-2.4.88-4.73.81-7.13.88-.5,0-1.19-.21-1.46,0-1.54,1.42-3.42,1.12-5.11.89-2.06-.28-3.69,1-5.6,1.07-1.63.09-3.54-.32-4.81.4-1.67,1-3.21.49-4.77.55a23.65,23.65,0,0,0-4.62.93c-2.61.6-5.33.08-8.11.94s-5.68.19-8.56,1.07c-2.55.79-5.32-.09-8.12.92-2.58.94-5.68,0-8.56,1.06-1.77.64-4.38-.58-5.86.3-2,1.18-3.82.68-5.69.76a38.78,38.78,0,0,0-5.6,1c-3.14.62-6.34-.11-9.62.91-3,.91-6.33.32-9.57,1s-6.69.2-10.08,1c-3.07.75-6.38-.16-9.6,1-1.76.65-4,0-6,.15s-4,.77-6.09.94c-5.19.41-10.39.69-15.59,1-.33,0-.77-.13-1,0-2,1.58-4.41,1.09-6.59.89-2.37-.22-4.38.93-6.6,1.08-5.36.35-10.72.67-16.08,1-.17,0-.38-.07-.49,0-2,1.38-4.37,1.14-6.59.94s-4.4.79-6.6,1c-3.52.34-7,0-10.62.89-3.19.83-6.67.23-10.08,1-3.23.74-6.68.24-10.08,1-3.24.73-6.69.2-10.09,1-3.07.74-6.34.25-9.59,1-3.72.81-7.68.36-11.57,1-5.26.91-10.7.81-16.06,1.14-.33,0-.78-.14-1,0-2,1.58-4.42,1.1-6.6.88-2.38-.23-4.37,1-6.59,1.09l-16.59,1c-.33,0-.75-.13-1,0-2.06,1.38-4.38,1.11-6.6.93s-4.39.81-6.59,1c-5.35.48-10.72.72-16.08,1-.34,0-.78-.14-1,0-2,1.59-4.42,1.11-6.59.89-2.38-.25-4.37,1-6.6,1.09-3,.14-6.06-.23-9.13.87-1.92.68-4.29,0-6.45.16s-4.05.7-6.09,1c-2.7.32-5.37.25-8.13.79-4,.8-8.36.27-12.55,1.15-2.8.58-5.72-.13-8.62.94-1.91.7-4.3,0-6.45.17s-4.05.75-6.09.93c-3.2.29-6.39-.22-9.63.9-2.09.71-4.62.2-7,.11s-4.22,1.26-6.6,1.13c-3-.16-6.21-.89-9.08.89-4.74-.32-9.4.39-14.08,1-3.35.42-6.73-.32-10.14.9-2.06.74-4.62,0-6.94.17s-4.72.73-7.09.94c-3.7.34-7.4-.32-11.13.89-2.26.73-5,0-7.45.17s-4.72.73-7.09.94c-4.2.38-8.39-.4-12.63.88-2.6.78-5.63,0-8.46.18s-5.38.73-8.09.94c-5.19.39-10.38-.37-15.62.87-3.47.81-7.3,0-11,.19s-7.39.86-11.08.91c-8.84.15-17.67,0-26.5.09-2.54,0-5.08-.48-7.64.86s-5-.82-7.53-.94c-7.2-.33-14.4.74-21.62-.8-2.74-.57-5.75-.48-8.55-1.19-4.33-1.11-8.34-2.69-9.64-7.74-.73-2.84-2.12-5.53-2.6-8.39-.82-4.86-1.41-9.77-1.95-14.66a211,211,0,0,1-1.05-23c0-6.23-1.82-12.32-1.09-18.57,0-.33.15-.83,0-1-1.75-1.45-.68-3.4-1-5.11-.32-1.86-.7-3.71-1-5.58a54.74,54.74,0,0,0-1.09-7c-.54-1.79-1.81-3.36-2.88-5.25-3.48,4.74-4.29,9.83-4.94,14.85-.41,3.17-1.83,6.26-1.1,9.57-1.41,1.85-1.23,4-.93,6.07.33,2.23-1,4-1.1,6.09a95.55,95.55,0,0,1-.77,12.6c-1,5.91,0,12-1.08,18.06-.88,4.92.17,10-1,15.08-.93,4.21.36,8.75-1.1,13.06-.7,2.08.19,4.31-.84,6.65-.88,2-.66,4.64-1.1,7a25.92,25.92,0,0,1-4.84,10.5,16.15,16.15,0,0,1-6.48,4.81c-3.86,1.83-8.16,2.11-12.27,2.9-3.21.62-6.65,0-10,.16s-6.39.88-9.59.92c-11.5.11-23,0-34.5,0h-34c-11.5,0-23-.17-34.5,0s-22.77-1.06-34.08,1c-22.83,0-45.67-.16-68.5,0s-45.39-.76-68.09.83c-10.45.73-21,.12-31.49.12s-21-.18-31.5,0-20.7-.2-31.11.71c-11.74,1-23.64.14-35.48.27s-23.72-.35-35.6.82c-7.92.78-16,0-24,.19s-15.7-.07-23.61.75c-11.94,1.22-24-.39-36.08,1.09-9.11,1.12-18.35-.41-27.59.93-7.91,1.15-16-.24-24.08,1.08-5.77.95-11.67-.19-17.6.9-5.54,1-11.37,0-17.07,1.11-3.77.75-7.74-.4-11.61,1-1.77.64-4,0-6,.15s-4.06.72-6.1.94c-2.86.31-5.7-.19-8.63.87-2.45.88-5.32.18-8.08,1s-5.69.17-8.57,1c-2.07.63-4.37.21-6.6,1-2,.71-4.33.44-6.58.94-5.36,1.19-10.83,2.15-16.25,3-5.16.79-9.94,3.22-15.22,3.19-2.63,1.94-6,1.46-8.89,2.7s-6.38,1.45-9.53,2.33c-3,.83-5.81,2.1-8.78,2.94-6.7,1.89-13.24,4.32-20,6-3.13.81-6.11,2.35-9.27,2.89-8.18,1.39-15.87,4.45-23.83,6.54-3,.78-5.72,1.8-8.24,1.5-3.67-1.81-6.73-3.73-10.06-4.89-5-1.72-9.75-3.84-14.72-5.55s-10-4-15-5.93c-5.3-2.08-10.5-4.55-15.83-6.4-9.19-3.19-18-7.29-27.09-10.69-9.88-3.71-20-6.48-30.1-9.33-3-.84-6.23-1-9.28-1.81s-6.29-.18-9.5-1.14-6.66-.56-10.05-1c-6.95-.92-14-.92-21.06-1.15-4.5-.15-9,0-13.5-.07a17.85,17.85,0,0,1-3.53-.66,32.57,32.57,0,0,1-3.64.68c-6.86.44-13.7-.31-20.62.8-4.53.73-9.13,1.37-13.62,2.3a68.29,68.29,0,0,0-11.48,3.62c-11.42,4.6-21.41,11.62-31.07,19.08-5.13,4-10,8.3-14.74,12.7-7.39,6.83-14.58,13.89-21.9,20.79-3,2.8-6,5.53-9.15,8.1-2.07,1.69-4.43,3-6.65,4.54a2.26,2.26,0,0,1,.29-2.09c2.43-3.16,5.05-6.2,7.33-9.47,4-5.79,7.78-11.77,11.77-17.59a73.77,73.77,0,0,0,9.66-19.5c.55-1.68-.17-3.55.7-4.65,1.62-2,.54-4.14.89-6.17a42.23,42.23,0,0,0,1-6.08,92.06,92.06,0,0,0-.76-11.59c-.54-5.75-1.18-11.44-2-17.16-.56-3.76-2.37-7.25-2.19-11.12-3.15-7.69-5.55-15.67-8.93-23.28a194.78,194.78,0,0,0-12.38-22.83,212.44,212.44,0,0,0-19.78-26.76c-4.32-5.05-8.76-10-13-15.12-2.93-3.5-6.12-6.79-9.14-10.22a10.59,10.59,0,0,1-1-2.6c4.66,3,8.81,5.27,12.42,8.18,4.36,3.5,8.93,6.76,13.44,10,6.31,4.54,12.22,9.58,18.61,14,4.49,3.12,8.29,7.21,12.73,10.43,2.4,1.74,4.24,4.08,6.64,5.67,4.54,3,8.46,6.77,12.84,10,1.81,1.33,3.33,3.15,5.29,4.14,2.17,1.09,3.85,2.78,5.75,4.11,4.26,3,8.55,5.89,12.88,8.79,4.94,3.3,10.68,5.19,15.26,9.06,3-.18,5.26,1.91,7.69,3.13s5.19,2,7.68,3.22c4.55,2.28,9.45,3.74,14.2,5.52,7.37,2.77,15.06,4.69,22.55,7.15,4.26,1.4,8.63,2.42,12.88,3.86,5.15,1.74,10.58,2.62,15.8,4.14,4.18,1.21,8.42,2.18,12.57,3.44,4.48,1.36,9.05,2.3,13.52,3.58,3.43,1,6.94,1.58,10.32,2.83a98.93,98.93,0,0,0,11.72,3.08c4.72,1.11,9.54,1.86,14.17,3.23,6.12,1.81,12.34,3.18,18.52,4.76,3.49.9,7.1,1.46,10.53,2.39,5.61,1.53,11.33,2.37,17,3.58,2.48.53,4.93,1.61,7.57,1,1.63,1.63,3.89.39,5.54,1.11a15.17,15.17,0,0,0,6.14.88c.5,0,1.23-.21,1.46,0,1.65,1.81,3.76.62,5.62,1s3.71.77,5.59,1c2.86.31,5.88-.67,8.58,1,5.25-.46,10.39.75,15.59,1,6,.23,12,0,18,0,5.83,0,11.68-.27,17.49.08s11.7-1.13,17.59-1.13c2.7,0,5.38.45,8.16-.79,1.8-.81,4.26-.23,6.43-.14s4.21-1.22,6.59-1.14a34.45,34.45,0,0,0,11-1.06c2.46-.73,5-.14,7.08-1a18.84,18.84,0,0,1,4.65-.87c1.71-.21,3.38-.69,5.09-1,2.35-.38,4.72-.68,7.08-1s4.94-.19,7-1.14c1.92-.87,4.21,0,5.51-1.08,2-1.6,4.33-.19,6.43-1.6,1.79-1.19,4.7-.54,6.94-1.25,2.54-.81,5.26-.55,7.75-1.83,1.61-.83,3.66-.88,5.54-1.07,3.93-.38,7.71-1.59,11.54-2.4,4.84-1,9.67-2.33,14.47-3.62,2.14-.58,4.49-.58,6.48-1.28,7.22-2.55,14.79-3.68,22.08-5.85,4.29-1.27,8.65-2.35,12.92-3.74,4.85-1.58,9.89-2.66,14.83-4,5.53-1.53,11-3.16,16.58-4.68,4.61-1.27,9.12-2.9,13.67-4.41a255.52,255.52,0,0,0,30.5-12,205,205,0,0,0,20.88-11.08c4.9-3.11,10.41-5.45,14.45-9.85,9-4.74,16.47-11.77,24.56-17.83,5.9-4.42,11.63-9.18,17.19-14.06,5.82-5.11,11.89-9.9,17.91-14.76,4.34-3.51,8.8-7,13.35-10.1,9-6.25,22-14.66,34.69-19.94,3.27-1.35,6.38-3.32,9.77-4.11,3.66-.85,6.73-3.46,10.66-3.3,7.46-2.84,15.24-4.41,23-6,2.23-.44,4.59-.27,6.55-1a18.42,18.42,0,0,1,4.65-.85c1.71-.23,3.4-.93,5.09-.92,3.42,0,6.62-1.79,10.08-1.06,2-1.62,4.4-1.11,6.58-.91,2.37.22,4.38-.91,6.6-1.08,3.37-.26,6.71.27,10.13-.85,2.41-.79,5.29,0,7.95-.19s5.39-.7,8.09-1c4.35-.4,8.68.06,13.12-.81,5.2-1,10.69,0,16.07-1.08,4.25-.85,8.71.25,13.1-1,2.63-.74,5.64,0,8.46-.17s5.39-.69,8.09-1c3.69-.35,7.4.47,11.13-.88,2.07-.74,4.63,0,6.95-.17s4.72-.75,7.09-.93c5.36-.42,10.72-.7,16.08-1,.33,0,.72.09,1,0,4.4-2.19,9-.38,14-1a10.17,10.17,0,0,1-1.14,2.16c-2.45,2.37-5,4.59-7.59,6.85-4.52,4-8.43,8.73-12.45,13.27-1.33,1.51-2.1,3.48-3.32,5.1a76,76,0,0,0-8.79,15.85,100.52,100.52,0,0,0-5.12,14.35,123.57,123.57,0,0,0-3,15.24c-.45,3.44-.09,7-.09,10.48,0,3.33-.41,6.72.11,10s1.33,6.52,1.71,9.7c.91,7.6,3.76,14.45,7,21.12a69.2,69.2,0,0,0,8.63,14c4.59,5.58,9.42,10.8,15.27,15a51.48,51.48,0,0,0,15.7,8c4.24,1.23,8.29,3,12.81,2.84,2.14,1.85,5,.08,7,1.14,2.62,1.41,5.13.62,7.67.82s5,0,7.5,0c3.16,0,6.34-.13,9.49,0s6.29-1.68,9.59-1a1.66,1.66,0,0,0,1,0c3.36-1.83,7.25-1.63,10.81-2.86,3.76-1.31,11.21-3.93,14-6,3.81-2.7,7.21-6,11-8.66,5.47-3.86,9.54-8.94,13.45-14,4.51-5.85,8.52-12.27,10.71-19.48.86-2.81,2-5.52,2.7-8.41.54-2.23,0-4.82,1-6.52,1.65-2.87.33-5.9,1.59-8.86,1.14-2.68.24-6.23.24-9.39a23.17,23.17,0,0,1,0-2.5c.58-4.76-.84-9.37-1-14.07-1.7-1.71-.68-4-1.26-6a73.62,73.62,0,0,0-13.24-25.94,94.16,94.16,0,0,0-17.89-17,194.9,194.9,0,0,0-16.75-10.22c-6.21-3.59-12.53-7-19.78-11,2.23,0,3.36,0,4.48,0,12.2.46,24.37-.23,36.61.77,12.58,1,25.31.23,38,.23,12.5,0,25-.15,37.5,0s25-.29,37.6.76c11.25.94,22.65.2,34,.2,11.17,0,22.34-.17,33.5,0s22.37-.09,33.6.71c14.1,1,28.32.06,42.48.3s28.38-.47,42.61.74c11.74,1,23.65,0,35.48.26s23.37-.39,35.1.73c10.41,1,21,.07,31.48.25s20.71-.37,31.11.78c8.23.91,16.65,0,25,.23s16.71-.46,25.11.78c6,.89,12.31.17,18.47.17s12.35.3,18.5-.08,12,1.32,18.09,1.12,12.33-.15,18.5,0,12,.07,18.11.75c8.06.9,16.31.09,24.47.26s16.06.57,24.09,1c9.35.48,18.74-.91,28.1.87,3.86.73,8,.12,12,.12s8,.29,12-.08,7.69,1,11.59,1.14c10.2.32,20.37-.46,30.61.75,10.6,1.25,21.36-.31,32.08,1.05,8.94,1.13,18-.16,27.09.94,9.93,1.21,20-.28,30.08,1.07,8.11,1.08,16.35-.24,24.6.93,8.57,1.21,17.35-.21,26.08,1.05,7.59,1.1,15.34-.18,23.09,1,8.07,1.18,16.35-.2,24.58,1,7.42,1.11,15-.26,22.59,1,6.9,1.14,14-.13,21.08,1,6.91,1.1,14-.14,21.09,1,6.74,1.11,13.67-.16,20.59,1,6.73,1.1,13.68-.1,20.58,1,6.41,1,13-.13,19.59,1s13.34-.08,20.08,1c6.57,1.07,13.34-.06,20.09,1,6.91,1.08,14-.13,21.08,1,6.74,1.1,13.78-.79,20.56,1.15,11.56-.75,23,1.23,34.58,1,2.17-.05,4.34-.12,6.5,0s4.47-.6,6.65.88c1.12.77,22.32-.1,24.14-.47-2-1.34-4.31.14-6.56-1.21-1.82-1.1-4.6-.48-7-1.05s-5-.66-7.56-1.09-5-.46-7.6-.94c-4.59-.86-9.36-.82-14.05-1.14-.5,0-1.19.21-1.47,0-2-1.75-4.42-.66-6.62-1-2.36-.32-4.72-.71-7.09-1-2.7-.31-5.37.23-8.14-.86-2-.79-4.62,0-6.94-.19s-4.71-.72-7.09-.94c-3-.28-6-.2-9.12-.83-4.06-.82-8.36-.19-12.57-1.09-3.1-.67-6.34-.24-9.6-.9-4.22-.86-8.71-.72-13.06-1-6.19-.37-12.32-1.89-18.57-1.22-.33,0-.77.14-1,0-2.19-1.64-4.76-1.14-7.09-.88-2.71.31-5-1-7.59-1.13-3.54-.13-7,.1-10.64-.77-3.84-.93-8-.19-12.06-1.08-3.58-.78-7.38.25-11.1-1-2.1-.7-4.64,0-7-.16s-4.38-.7-6.59-.94c-3-.34-6.05.33-9.14-.87-2-.79-4.62,0-6.94-.19s-4.72-.71-7.09-.94c-3.36-.32-6.69-.09-10.13-.82-4.2-.89-8.71-.74-13-1-6.19-.34-12.32-1.91-18.57-1.22-.33,0-.77.14-1,0-2.37-1.68-5.06-.7-7.6-1s-5-.73-7.59-1c-3.36-.32-6.69-.1-10.12-.81-4.38-.91-9-.17-13.57-1.1-3.76-.77-7.72.35-11.6-1a13.9,13.9,0,0,0-6.45,0c-2.41.41-4.33-1-6.59-1.11-4-.12-8,.06-12.13-.76-4.54-.92-9.35-.21-14.07-1.09-4.27-.78-8.67-.05-13.1-.92-4.71-.94-9.68-.13-14.57-1s-9.68,0-14.6-1-10,0-15.08-1c-5.23-1-10.67,0-16.09-1s-11.33,0-17.08-1c-5.9-1-12,0-18.08-1-6.58-1.08-13.35.09-20.09-1-6.57-1.07-13.34,0-20.08-1-7.92-1.14-16,.16-24.09-1-8.24-1.17-16.67,0-25.08-1-10.26-1.25-20.68.18-31.08-1-11.27-1.28-22.7.48-34.09-1-6.71-.88-13.64-.07-20.47-.18s-13.72-.1-20.61-.77c-8.75-.85-17.65-.1-26.48-.24s-17.38.13-26.1-.78c-8.41-.87-17-.19-25.48-.19-8.34,0-16.67.13-25,0s-16.79.88-25.09-1c-21,0-42,.19-63-.06s-42,.54-63.09-.75c-16.11-1-32.32-.19-48.49-.19h-338c-16,0-32,.19-48-.06s-32,.48-48.1-.73c-13.59-1-27.32-.21-41-.21h-41c-13.84,0-27.67.17-41.5,0-13.53-.21-27,.58-40.6-.79-8.75-.88-17.66,0-26.49-.2s-17.7.3-26.6-.79c-10.1-1.24-20.37.55-30.59-1-7.08-1.11-14.36.47-21.59-1-4.89-1-10,.15-15.09-1-3.72-.86-7.68,0-11.59-1-3.21-.8-6.69-.15-10.08-1-2.73-.71-5.71.05-8.6-1-2-.73-4.33,0-6.6-1-1.94-.78-4.36-.65-6.55-1-4.23-.65-8.29-2.36-12.65-2.17-2.77-2-6.49-1-9.26-3-3.62.48-6.53-2.46-10.12-2.12-6.06-2.35-12.37-3.94-18.56-5.89-5.59-1.77-11.2-3.52-16.75-5.43-8.74-3-17.46-6.05-26.08-9.43s-16.78-7-25-10.74A251.41,251.41,0,0,1,1087.89,736c-5.22-3-10.82-5.51-15.77-8.94-9.88-6.84-20.3-12.94-29.38-21-2-1.8-4.09-3.66-6.19-5.42s-4.32-3.41-6.27-5.34c-1.7-1.69-2.89-3.92-4.68-5.49a13.89,13.89,0,0,1-4.33-6.71c-.57-2.17-1.76-4-2.41-6-1-3.22-3.08-6.16-3.74-9.41-1.08-5.39-1.61-10.89-3-16.24-.6-2.26-.18-4.7-1-7.1-.7-2.2-.2-4.68-1-7.08-.72-2.19-.22-4.67-1-7.08-.7-2.19-.5-4.68-1-7.07-.85-4.08-.81-8.35-1.14-12.54,0-.33.14-.8,0-1-1.28-1.35-.82-3-1-4.6s-.8-3.38-.93-5.09c-.24-2.87-.07-5.7-.89-8.61s.33-6.14-1.15-9c.36-5.89-1.42-11.64-1.07-17.57s.07-11.64.07-17.07c-1-2-1.88-3.63-3-5.81a8.7,8.7,0,0,0-.06-3.32c-2-5.27-1.89-10.87-3-16.27-.18-.91-.48-1.79-.74-2.69-.75-2.52-1.52-5-2.25-7.56-1.8-6.32-5.11-12-7.5-18.38-.38.94-.62,1.51-.92,2.25-4.06-3.53-6.71-8.05-9.58-12.39-2.68-4.05-5.29-8.15-8-12.14-3.51-5.09-7.14-10.09-10.76-15.09s-7.86-9.75-11.94-14.44a106.78,106.78,0,0,0-15-14.25c-4.33-3.36-8.15-7.44-12.69-10.47-8.66-5.78-17.32-11.67-26.88-15.91-4.64-2.06-8.87-4.95-13.88-6.33-5.79-1.6-11.34-4.07-17.13-5.68-5.13-1.42-10.42-2.27-15.67-3.2-3-.53-6.2-.26-9-1.18a26.54,26.54,0,0,0-5.64-.88c-1.87-.2-3.71-.77-5.59-.94-3-.27-6,0-9.13-.86-2.78-.79-6,0-9-.21s-6.07-1-9.08-.89c-8.2.27-16.44-1-24.61.85-2.21.51-4.66-.05-7,.12s-4.72.85-7.09.9-4.42.81-6.59.95c-4.32.28-8.45,1.47-12.68,2a41,41,0,0,0-11.54,3.6c-8,3.46-14.48,9.08-20.86,14.81-4.64,4.18-8.91,8.71-13.6,12.86C684,423.75,677,431.14,669,437.44c-3,2.38-6,4.76-9,7.1a6.34,6.34,0,0,1-4.5,1.27l-2.8-2.8c.77-2.78,1.25-5.94,2.51-8.75a90.18,90.18,0,0,1,9.77-16c2.46-3.37,4.63-7,7.83-9.72,4.79-4.13,9.31-8.65,14.48-12.22,3.24-2.24,6.26-5.1,10.53-5.92,2.64-.51,5.09-2.16,7.55-3.43a149.55,149.55,0,0,0,15.22-9.14c3.73-2.52,7.43-5.16,11.71-6.71q5-1.82,10.16-3.23c3.81-1,7.82-.88,11.69-1.91,2.33-.62,5,0,7.47-.15s5-.76,7.59-.94c6.39-.46,12.73.43,19.08.94,2.65.21,5.59-.64,7.93.23,2.14.8,4.12.52,6.16.81s4.38.72,6.58,1c3.36.39,6.82.31,10.06,1.12,3,.77,6.11,1.35,9.2,1.91a78.39,78.39,0,0,1,9.65,2c4.9,1.56,10,2.33,14.86,4,5.7,1.9,11.73,2.89,17,6,1.8-.65,3.3,2.22,5.43.34-4.44-1.82-8.68-3.66-13-5.31s-8.95-3.37-13.5-4.81a125.36,125.36,0,0,0-13.89-3.83c-3.7-.73-7.23-2.07-11-2.48-2.35-.26-5-.33-7-1.12s-4.51.12-6.08-.91c-2.13-1.4-4.15-.51-6.18-.85-.65-.1-1.59.26-1.94-.08-2-1.92-4.46-.52-6.65-.92s-4.37-.77-6.58-1a36.26,36.26,0,0,0-5,0c-13.73.57-27.56-1.49-41.18,1.93a118.31,118.31,0,0,1-12.19,1.87c-4.09.58-8.1,1.44-12.14,2.21a49,49,0,0,0-13.26,4.13c-5.53,2.84-11.11,5.63-16.08,9.63-4.73,3.81-9.86,7.14-14.19,11.45a241.8,241.8,0,0,0-20.27,22c-3.93,5-7.47,10.26-11.25,15.35-3.09,4.16-5.31,8.85-8.2,13.08-3.89,5.68-6.56,12-10.41,17.72-1.86,2.76-2.93,6.1-4.09,9.27-1.22,3.33-3.47,6.14-4.26,9.76-.61,2.82-3.16,4.64-5.81,5.78.45,3.81-1.39,7-2.33,10.24-1.74,6-3,12.05-4.73,18-1,3.42-1.41,7-2.85,10.3a37,37,0,0,0-3,9.24c-.8,5.52-1.12,11.11-2,16.65-.63,4-.4,8-.89,12.09-.67,5.43-.87,11.11.81,16.54,1.18,3.82,2,7.87,4.33,11.16,1.18,1.7,2,3.51,3.08,5.25,3.53,5.87,7,11.81,10.65,17.56,2.47,3.85,5.21,7.54,7.8,11.3,4.06,5.87,8.61,11.36,12.64,17.22,2.7,3.93,5.84,7.51,8.58,11.41a184,184,0,0,0,11.64,14.67c3.17,3.65,6.11,7.52,9,11.34,4.87,6.46,10.07,12.68,14.68,19.34,3.78,5.46,7.79,10.75,11.58,16.2,3,4.35,5.56,9,8.31,13.52a135.8,135.8,0,0,1,10.13,20.3c.86,2.15,1.79,4.27,2.45,6.48.7,2.37,1.36,4.8,1.93,7.16a35,35,0,0,1,1.13,6.54c.09,2.27,1.05,4.49.93,6.57-.39,7.09,1.07,14,1.27,21.07.18,6.59-1.66,13-1.1,19.56s-1.23,12.69-1,19.08c0,.33.14.85,0,1-2,1.44-.45,3.7-1.3,5.48a38.21,38.21,0,0,0-1.68,5.79c-2,6.78-5.06,12.61-12.7,14.49-1.79.44-3.47,1.47-5.27,1.7a12.93,12.93,0,0,1-5.82-.33c-6.23-2.23-12.42-4.61-18.46-7.33-6.6-3-13.26-5.81-19.83-8.86-7.69-3.56-15.35-7.19-22.95-11-6.09-3-12.1-6.21-18.09-9.44-6.93-3.74-14.34-6.46-21.32-10.06a143.19,143.19,0,0,0-16.49-7.29c-3.19-1.16-6.54-2-9.75-3-3.45-1.12-7-1.59-10.46-2.38-3.86-.89-8-.65-12.06-1-7.28-.66-14.66-.36-22-.14s-14.37-.43-21.62.76c-6.06,1-12.38,0-18.57,1.11-4.12.74-8.48.3-12.53,1.25-2.24.53-4.58.21-6.57,1-2.71,1-5.53,1.06-8.23,1.83s-5.46,1.3-8.16,2a84.52,84.52,0,0,0-9.35,2.77c-4.15,1.66-8.69,2.39-12.34,5.21-5.41.93-9.49,4.55-14,7.18-4.25,2.46-8.61,4.92-11.89,8.75-3.61.77-4.8,4.54-7.88,6.24a22.11,22.11,0,0,0-7.74,7.64c-1.63,2.64-4.24,3.76-6.1,5.86-4.18,4.73-8.38,9.46-12.36,14.36-4.84,6-9.59,12-14.12,18.14-2.82,3.83-6.22,7.21-8.63,11.39-1,1.7-3,2.84-4.86,4.6a19.62,19.62,0,0,1-5.22,7.65c-5.17,4.7-9.77,9.92-15.69,13.92A77.63,77.63,0,0,1,294,932.9a161.76,161.76,0,0,1-23.33,6.4c-4.65,1-9.47,1-14.18,2-3.27.67-6.82-.48-10.06,1.1-6.42-.73-12.7,1.32-19.09,1-6.56-.34-13,1.78-19.58,1a.93.93,0,0,0-.5,0c-3.63,2.2-7.95,0-11.72,1.9-1.63.83-3.82-.46-5.71.69s-4.23-.35-5.91,1.4c-7.83.94-14.83,4.41-21.87,7.55a164.86,164.86,0,0,0-17.27,9c-4.95,2.95-9.93,5.83-14.8,8.89-3.3,2.08-6.51,4.37-10,5.92a25.81,25.81,0,0,0-8.62,5.75c-1.26,1.32-2.38,3-3.93,3.78-1.86.93-2.4,2.76-3.78,3.93-2,1.66-4.34,3-5.86,5a93,93,0,0,1-7.87,8.71,5.86,5.86,0,0,0-.7.71c-3.82,5.89-8.69,11-12.76,16.69-3,4.27-6.37,8.35-9.5,12.56-2.36,3.17-4.67,6.37-6.9,9.64-3.53,5.18-7.09,10.35-10.4,15.68-2.78,4.47-5,9.28-7.89,13.69-1.84,2.82-2.46,6-3.68,9C36,1090,34,1095.25,35,1100c2.19,4.47,5.93,4.87,9.19,6.31.45-.33.92-.9,1.48-1,5.1-1.09,7-2.41,9.23-6.47.29-.54.34-1.26.73-1.68A146.86,146.86,0,0,0,67,1082.78c3.65-5.16,7.55-10.15,11-15.45,5.41-8.32,11-16.53,17-24.38,4.37-5.69,8.32-11.67,12.91-17.21,2.11-2.54,4-5.34,6-8s4-5.35,6-8c1.8-2.33,4.26-4.19,5.64-6.64,3.09-5.51,8.39-8.67,12.94-12.4a60,60,0,0,1,17.75-10.05,64.67,64.67,0,0,1,11.15-3.2c3.24-.53,6.65,0,10-.15s6.38-.81,9.59-.92c4.83-.16,9.66-.12,14.5,0s9.78-.57,14.6.93c2.1.65,4.34-.26,6.65.88,1.82.9,4.4-.11,6.54,1.1.69.39,1.84,0,2.78-.08a47,47,0,0,0-16.57-3.76c-11.32-.3-22.66-.09-34-.09a14.18,14.18,0,0,0-3,.06,47.82,47.82,0,0,1-16.86.43,43.6,43.6,0,0,1,10.27-4.91c4.13-1.27,8.13-3,12.27-4.16,4.4-1.29,9.1-1,13.51-2.41,7.85.59,15.71-.74,23.62.8,4.16.82,8.47,1.23,12.63,2.22a69,69,0,0,1,14.52,4.78A94.35,94.35,0,0,1,275,991.88l-.12,2.38c-4.9.48-9.12-1.93-14.54-3.06,1.08,1.09,1.51,1.8,2.12,2.08a46.53,46.53,0,0,1,13.07,9.33c7.38,7.18,15.06,14.07,21.11,22.63A211.18,211.18,0,0,1,311,1048.81c2.09,4,3.47,8.24,5.4,12.25,3.71,7.7,6,15.87,8.4,24,2.22,7.58,4,15.33,6,23a195.13,195.13,0,0,0,8.91,25.31c3.28,7.84,7.3,15.28,13.34,21.48C354.8,1156.6,356,1158.88,357.66,1161.17Z" transform="translate(-23.41 -350.3)"/><path class="cls-1" d="M1312,909.57c0,1.43,0,2.59,0,3.74.07,3.35-1.35,5.49-4.42,7.17-5.47,3-11.29,5-17.15,6.9-4.84,1.59-9.65,3.34-14.59,4.57-4.23,1-8.33,2.5-12.58,3.46-4.4,1-8.75,2.19-13.11,3.32-4.67,1.21-9.35,2.36-14,3.67-2.66.75-5.42.64-8.07,1.08-7.67,1.27-15.41,2.44-22.53,5.89-.65,1.7-2.35.67-3.47,1.3a11.59,11.59,0,0,1-3.2.7c-3.2.72-6.46,1.25-9.58,2.24-4.75,1.52-9.65,2.41-14.43,3.76-5.82,1.66-11.88,2-17.72,3.21-3.81.82-7.88,1.3-11.56,3.41-2.72,1.57-6.29,1.69-9.5,2.35-5.56,1.13-11.2,1.9-16.73,3.11a133.42,133.42,0,0,1-18.28,2.89c-2.52,1.74-5.6.19-8,1.15-2.61,1-5.18.3-7.62.92-4.35,1.12-8.89.17-13.06,1.14-4,.91-7.77.69-11.63.73-4.9.05-9.63,1.49-14.59,1.14s-10.13-.8-15,.08c-8.06,1.46-16.08.55-24.11.79s-16,.05-24,.05c-8.17,0-16.4.62-24.48-.21-5.89-.61-11.81-.11-17.58-1-3.9-.57-7.88-.13-11.57-1-4.75-1.11-9.81-.58-14.3-2.84-4.72.47-9.11-1.41-13.64-2.15A97.61,97.61,0,0,1,887.35,968c-3.6-1.16-7.32-1.49-10.91-2.57-4.45-1.34-9.07-2.14-13.51-3.61-3.81-1.27-7.77-2.31-11.62-3.22s-7.7-2.52-11.67-3.4a73.39,73.39,0,0,1-9.29-2.83c-11-4-22.06-8-32.15-14.08a27,27,0,0,1-8.5-7.39,95,95,0,0,1-7.24-11.55c-1.87-3.64-2.48-7.64-3.53-11.53-1-3.7-.41-7.47-1.1-11.06a42.49,42.49,0,0,1-.83-6.62c-.09-2.58,1.4-4.87,1.1-7.59-.26-2.32-.78-4.89.9-7.06-.46-4.72,2-9,2-13.66,2.09-3.29.66-7.14,1.78-10.73,1-3.34.28-7.26.19-10.92a9.74,9.74,0,0,0-.72-4.19c-1.26-2.73.58-5.57,1.17-8.32a12.43,12.43,0,0,1,2.82-5.76,62.65,62.65,0,0,0,5.65-7.68c2.12-3,4.92-5.61,7.33-8.48,5.12-6.1,10.61-11.89,14.9-18.69,1.31-2.08,3.71-3.62,5.88-5,3.2-2,13.45-6.72,18.83-7.68a122.86,122.86,0,0,0,13.44-3.71c2.14-.65,4.3-.07,6.58-1,2.86-1.16,6.32-.82,9.51-1.21,1.87-.24,3.73-.63,5.58-1s4,.92,5.61-1c.14-.17.65,0,1,0,6.4.48,12.65-1.56,19.09-1.06,6.21.49,12.31-1.41,18.58-1s12.43.79,18.48-.07c10.88-1.54,21.75-.36,32.6-.84,5.73-.25,11.31,1.46,17.09,1.08s11.76-.74,17.47.11c5.08.76,10.08.65,15.11.77,1.95,0,3.49,1.46,5.6,1.13,1.65-.27,3.57-.66,5.12.86.34.33,1.29,0,1.95,0,4.37.32,8.85.13,13.06,1.11,8.35,1.94,16.8,3.37,25.1,5.67,7.18,2,14.46,3.8,21.39,6.39,7.62,2.85,15.31,5.63,22.71,9.11,8.93,4.19,17.8,8.57,26.82,12.51,15.57,6.81,30.25,15.38,45.81,22.16,6.32,4.58,13.66,7.26,20.44,11s13.4,7.15,19.91,11c4.81,2.88,9.61,5.87,14.51,8.5,6.17,3.3,11.93,7.24,18.07,10.57,5.78,3.14,11,7.39,16.39,11.18,3.42,2.38,6.59,5.08,9.84,7.68,4.62,3.69,9,7.67,13.78,11.19a28.61,28.61,0,0,1,8.67,9.28C1309.08,906.71,1310.75,908.11,1312,909.57Zm-12.88,2.37c-3.25-2.82-5.95-6-9.4-8.48-5-3.62-9.41-7.92-14.1-11.91a69.32,69.32,0,0,0-6-4.91c-5.19-3.5-10.46-6.88-15.77-10.19-4.5-2.79-8.92-5.7-13.51-8.35-2.41-1.4-5-2.52-7.3-4.13-4.72-3.34-9.94-5.81-14.86-8.8-6.23-3.78-12.77-7-19.11-10.61-6.84-3.88-14-7.12-20.93-11-6.71-3.77-13.88-6.7-20.75-10.2s-13.66-7.11-20.86-10c-5.27-2.1-10.18-5.09-15.42-7.41-6.62-2.93-13.15-6.06-19.89-8.69-5-2-10-3.92-15.12-5.74a187.64,187.64,0,0,0-24.55-7.18c-3.42-.72-6.87-2.08-10.32-2.68s-7.11-1.78-10.65-2c-4.38-.25-8.63-1.88-13.08-1.17-.65.1-1.65.3-1.94,0-1.52-1.7-3.44-.66-5.14-1a51,51,0,0,0-5.59-1c-5-.29-10-.11-15.11-.84-5.71-.83-11.65-.49-17.46-.11s-11.69-1.4-17.59-1.09c-8,.42-16-.1-24.1.8-10.93,1.22-22.05-.58-33.07,1.14-5.29.82-10.71-.56-16.11.93-3.17.87-6.72-.18-10.07,1.06-2.2.81-4.64-.23-7.14.88-2.16,1-5,.56-7.53,1-5.26,1-10.56,1.58-15.75,3.08-5.51,1.58-11.39,1.88-16.41,5-6.68,1-10.87,5.56-14.41,10.62-1.33,1.92-3,3.62-4.11,5.75a13.18,13.18,0,0,1-4.24,5.15c-2.14,1.33-3.06,3.49-4.73,5.1-3.19,3.08-6.23,6.4-8.07,10.59a5.48,5.48,0,0,1-1.56,1.84c-2.72,2.25-3.65,5.08-3.46,8.59.22,4.32.18,8.66,0,13s-.55,8.73-1,13.07a34.64,34.64,0,0,1-1.25,7A53,53,0,0,0,789.18,883c-.26,6.66-.76,13.36.69,20.09,1.34,6.2,2.53,11.17,6.15,16.45,3.25,4.73,7.15,8.69,12.61,11.07,3.8,1.67,7.34,3.89,11.32,5.27,5.82,2,11.42,4.75,17.34,6.36,6.14,1.67,12.16,3.73,18.27,5.47,5.18,1.48,10.43,3,15.61,4.43,4.92,1.38,9.88,3.38,15.19,3.21,2.57,1.75,5.69,1.54,8.52,2.34a86.66,86.66,0,0,0,9.12,2.11c3,.5,5.93,1.1,8.83,1.73,2.23.48,4.66.13,6.57.94,4.63,2,9.6,1.59,14.34,2.73,3.54.84,7.36.48,11.08.94,6.12.76,12.37.63,18.57,1,10.62.66,21.32.37,32,.12s21.37.67,32.1-.79c8.59-1.17,17.38.57,26.08-1,4.92-.92,10,.25,15.1-.92,4-.93,8.37,0,12.57-1.08,2.59-.65,5.39-.56,8.08-.89,4.75-.57,9.44-1.4,14.17-2.06,3.93-.55,7.78-1.31,11.67-2,5.57-1,11.16-2,16.73-3.11,3.23-.62,6.8-.67,9.58-2.16,5.87-3.12,12.31-3.74,18.55-4.59a124.93,124.93,0,0,0,12.55-2.51c6.34-1.54,12.67-3.15,19-4.72,2.72-.67,5.5-1.17,8.15-2,2.33-.77,4.48-2.06,6.78-2.93a66.44,66.44,0,0,1,16.86-3.78c4.48-.46,8.79-1.42,13.13-2.3a103,103,0,0,0,13.14-3.27c6.47-2.24,13.2-3.36,19.69-5.51,5.12-1.7,10.46-2.88,15.61-4.59C1289.6,915.4,1294.22,913.68,1299.12,911.94Z" transform="translate(-23.41 -350.3)"/><path class="cls-1" d="M818,722.58c-7.66,0-15.34-.26-23,.08-5.61.25-11.07-.78-16.58-1.24-5.21-.43-10.27-2.35-15.21-4.19a77,77,0,0,1-16.55-8.35c-3.18-2.15-7-3.36-10.22-5.42-5.45-3.45-10.59-7.38-16-10.86-9.71-6.23-17.6-14.5-25.57-22.67-4.47-4.59-8.15-9.89-12.18-14.86-5.61-6.9-9.56-14.79-14.6-22a56.82,56.82,0,0,1-6-12c-1.57-4-4.61-7.41-5.09-11.88-3.61-5.32-4.94-11.61-7.34-17.44-1.53-3.7-2.49-7.63-3.65-11.47a126,126,0,0,1-3.07-13.73c-1.09-6-1.39-12.12-2.19-18.13-.68-5.08,0-10.16-.87-15.08a56.46,56.46,0,0,1-.8-14.59c.5-6.43,1.23-12.83,3.35-19,1.3-3.79,2.38-7.71,3.41-11.56,2.39-8.9,6.42-17,10.53-25.13a117.46,117.46,0,0,1,14.06-22.17c1.92-2.31,3.35-5,5.38-7.22a91.65,91.65,0,0,1,7-6.06c3.56-3.13,6.62-6.75,10.44-9.67a43.17,43.17,0,0,1,10.19-5.68c4.13-1.65,8.05-4,12.52-4.81,4.89-.94,9.56-2.72,14.48-3.73,4.42-.91,8.94-1.41,13.34-2.62,2.65-.72,5.68-.77,8.54-1.13,4.5-.57,9.05-.87,13.58-1s9.33-.15,14,0a28.8,28.8,0,0,0,9.32-1.67,10.5,10.5,0,0,1,2.85-.35c4.67,0,9.34-.11,14,0a51.76,51.76,0,0,1,5.59.94c1.72.25,3.63-.55,5.08,1,5.69-.49,10.81,2.14,16.23,3.13,4.5.83,8.76,2.93,13.14,4.4,7.46,2.51,14.9,5.08,22.43,7.38,2.08.63,3.7,2.53,6.11,2.16,6.1,3,12.28,5.79,18.29,8.94a137.81,137.81,0,0,1,20.91,13.4,96.54,96.54,0,0,1,14,13.08c3.84,4.47,8,8.72,11.15,13.8,3,4.81,6.82,9.12,9.76,14a214.84,214.84,0,0,1,11.16,20.35,48.48,48.48,0,0,1,4.29,14.75c.26,2.17.69,4.36.87,6.59s.76,4.38.92,6.59-.43,4.77.13,7c1.56,6.18.72,12.4.88,18.59s0,12.32,0,18.48,0,12.32,0,18.48c0,7-1.71,14-1,21.06-1.15,2.42-.93,5-1,7.58a23.31,23.31,0,0,1-1,7c-2.1,5.65-3.25,11.57-5.38,17.24-2.41,6.4-5.55,12.37-8.51,18.46a74.83,74.83,0,0,1-8.29,13,125.39,125.39,0,0,1-13.39,15.46c-1.63,1.52-2.59,3.82-4.33,5.13-4.87,3.65-9,8.14-14.22,11.43A75.93,75.93,0,0,1,886,716.67c-3.71.83-7.44,1.37-11.16,2.06-4.44.83-9.1.81-13.32,2.76a3.7,3.7,0,0,1-1.46.08c-2.83,0-6-.8-8.41.21-2.85,1.2-5.48.5-8.18.74s-5.66.06-8.49.06Zm-.25-11c6.33,0,12.66.13,19,0,6.53-.17,13-.63,19.58-1a4.12,4.12,0,0,0,1.4-.24c4.28-1.74,8.91-2,13.37-2.58a89.82,89.82,0,0,0,15.7-3.24,57.39,57.39,0,0,0,18.9-9.95c2.42-1.94,4.67-4,6.95-6.07,1.54-1.4,3.75-2.31,4.74-4,1.38-2.32,3.35-4,5.09-5.86a48.9,48.9,0,0,0,3.84-3.92c4.35-6,9.51-11.5,13-18.06a99.76,99.76,0,0,0,6.75-14.19c1.52-4.35,3.38-8.6,4.6-13.06a133.74,133.74,0,0,0,3.2-13.14c.53-3.14-.29-6.47,1.09-9.56-.73-6.9,1-13.68,1-20.55,0-6.16,0-12.32,0-18.48,0-4.82.08-9.65,0-14.48s0-9.69-.79-14.59c-.75-4.58-.63-9.36-1.05-14a97.86,97.86,0,0,0-2.46-13.52c-1.64-7-5.53-13.1-9.21-19.12-4.09-6.7-8.43-13.27-13.16-19.6-3.76-5-7.89-9.69-11.9-14.46-2.49-3-5.76-5.26-8.7-7.83a67.15,67.15,0,0,0-7-5.95c-5.46-3.58-11-7-16.75-10.2-4.58-2.53-9.4-4.62-14.18-6.77-2.1-.94-4.36-1.53-6.55-2.28-4.38-1.49-8.73-3.08-13.16-4.43-8.13-2.47-16.11-5.4-24.29-7.76-7.76-2.25-15.66-3.29-23.51-4.63-3.69-.63-7.78-.95-11.57.79a12.3,12.3,0,0,1-4.56,1c-9.36.29-18.75-.56-28.08,1-3.65.61-7.52.21-11,1.17-4.4,1.2-8.94,1.43-13.33,2.71-2.5.73-5.29.89-7.75,1.85a72.83,72.83,0,0,1-7.59,2.13c-3.66,1-6.85,2.83-10.31,4.11a31,31,0,0,0-7.43,3.84c-4.08,2.88-7.26,6.63-10.83,10-2,1.89-4.13,3.63-6.21,5.41s-3.56,4.8-5.41,7.17a126.73,126.73,0,0,0-12.38,19.34,129,129,0,0,0-8.14,18.11c-2.16,6.3-4,12.69-5.74,19.11A98.2,98.2,0,0,0,650.07,524c-.14,1.65.77,3.36.9,5.07.4,5.18-.45,10.38.9,15.59.88,3.37-.34,7.07,1.06,10.57.69,1.73-.38,3.8.73,5.71,1,1.76-.36,4.21,1.34,5.93-.12,3.22.92,6.21,2,9.14s1.53,6.26,2.82,9.32c1.66,3.95,2.92,8.11,4.49,12.12,1.06,2.72,2.75,5.22,3.6,8,2.13,7,6.63,12.88,9.08,19.72,5.4,7,9.07,15,14.69,21.94,3.94,4.82,7.56,10,11.85,14.49,7.63,8,15.61,15.67,24.82,22,5.43,3.74,10.89,7.44,16.46,11,3.14,2,6.68,3.35,9.75,5.33a59.61,59.61,0,0,0,8.62,4.61c3.1,1.34,6.58,1.9,9.55,3.46s6.35,1.74,9.47,2.4c4.88,1,10,1,15,1.14C804.1,711.71,810.93,711.59,817.76,711.59Z" transform="translate(-23.41 -350.3)"/><path class="cls-1" d="M678,994.74c0,5.17-.28,10.35.07,15.48.44,6.27-.5,12.44-1.28,18.55a94.43,94.43,0,0,1-2.44,12.88c-1.14,4.2-2.35,8.39-3.8,12.45-3,8.34-7.38,16-12.25,23.39-6.9,10.47-15.68,19.29-24.9,27.57a101.56,101.56,0,0,1-18.85,13.38,161,161,0,0,1-18.82,8.93c-3.29,1.29-6.67,2.39-9.93,3.79s-6.91,1.61-10.3,2.88c-2.47.92-5.34.76-8,1.17-1.54.24-3.06.65-4.58,1s-3-.7-4.2.77c-.16.19-.58.2-.89.23-3.86.34-7.82.23-11.56,1.11-5,1.18-10.18.1-15.08,1-7.55,1.43-15.08.61-22.61.81s-15,.12-22.49,0c-2,0-4.05-.75-6.09-.91s-4.4.3-6.48-.11c-4.75-.94-9.69-1.59-14.12-3.29-5.86-2.26-11.7-4.72-17.38-7.54-8.43-4.17-16.05-9.58-23.91-14.61-3-1.9-5.43-4.62-8.11-7-3.06-2.7-6.2-5.3-9.11-8.14a155.85,155.85,0,0,1-18.19-21.89,151.7,151.7,0,0,1-9.61-15.55c-3.47-6.36-5.68-13.3-8.05-20.13-1.36-3.94-2.49-8-3.77-11.93-.63-2-.24-4-1.08-6-1-2.57-.49-5.74-1.25-8.49-1.24-4.51-.15-9.19-1.1-13.55s-.53-8.75-.82-13.11c-.15-2.27,1.48-4.18,1.07-6.59-.35-2.1-.73-4.61.08-6.41,1.39-3.15.38-6.37,1.23-9.48.78-2.87,1-5.94,1.77-8.79,1.2-4.63,2-9.35,3.64-13.94s2.69-9.28,4.4-13.68a165.06,165.06,0,0,1,12-25A145.61,145.61,0,0,1,392.9,887.8a264.33,264.33,0,0,1,20.28-22,128.58,128.58,0,0,1,24.17-18.92,89.11,89.11,0,0,1,15.85-7.55c3.62-1.28,7.29-2.51,10.86-3.92a79.28,79.28,0,0,1,10.33-2.78,110,110,0,0,1,12.1-2.33c2.88-.38,5.84-.26,8.59-.9,7.85-1.83,15.75-.45,23.61-.87a22.7,22.7,0,0,1,8.11.86c2.55.79,5.32-.09,8.11.94s6.43.46,9.51,1.25c5.38,1.38,10.88,2.39,16,4.75,3.63,1.67,7.6,2.58,11.25,4.2,7.18,3.21,14.53,6,21.26,10.26,4,2.49,8,4.92,11.8,7.68,3.33,2.42,6.76,4.7,10,7.26,7.12,5.66,13.31,12.31,19.76,18.69,6.66,6.59,12.26,14,17.8,21.56,2.54,3.46,5.57,6.65,7.94,10.25a134.14,134.14,0,0,1,10,16.81c2.34,5,3.57,10.2,4.92,15.48.74,2.89,0,6.09,1.81,8.72.16.22,0,.65,0,1-.06,7.87,1.6,15.65,1,23.56C677.76,986.07,678,990.42,678,994.74Zm-11-.19c0-4-.26-8,.06-12,.54-6.93-1.35-13.69-1.06-20.57,0-.34.14-.83,0-1-1.29-1.16-.83-2.69-1-4.1s-.78-3-.94-4.59c-.41-3.8-2.92-12.33-5-15.9-2.48-4.15-5-8.29-7.77-12.26-2.46-3.55-5.4-6.8-8-10.24-5.38-7.24-10.67-14.5-17.1-20.86s-12.41-12.8-19.4-18.35c-3.23-2.55-6.64-4.86-10-7.28-3.8-2.76-7.83-5.15-11.8-7.67-5.54-3.52-11.63-5.73-17.58-8.28-3.54-1.52-7.27-2.57-10.82-4.06a104.83,104.83,0,0,0-18.43-5c-2.53-.35-5.32-.32-7.51-1.15s-4.48-.39-6.67-.75a63.54,63.54,0,0,0-7.09-1c-3.32-.17-6.67-.17-10,0s-6.72.63-10.08,1-6.88.16-10.05,1.11c-4.93,1.47-10,2.46-14.92,3.73a114.66,114.66,0,0,0-18.38,6.36c-11.23,5-20.92,12.48-29.84,20.82a190.34,190.34,0,0,0-15.76,16.35c-5.27,6.26-10.41,12.57-15.07,19.29-4.35,6.27-7.36,13.27-10.65,20.08a100.55,100.55,0,0,0-5.88,16.53c-1.22,4.34-3,8.52-3.42,13.14a31.32,31.32,0,0,1-1,6,32,32,0,0,0-1.83,9.72c.06,3.56-1.64,6.93-1.06,10.59.25,1.57.4,3.54-.33,4.8a6,6,0,0,0-.45,5.2c1.29,3.07.55,6.11.84,9.14q.51,5.53,1,11.08a1.73,1.73,0,0,0,.1.45c1.24,2.6,1.27,5.47,1.91,8.21.5,2.11,1,4.25,1.65,6.31q3.09,9.45,6.36,18.84c.92,2.61,1.62,5.5,3.26,7.61,3.22,4.12,5.49,8.81,8.54,13a206.39,206.39,0,0,0,15.44,19,114.29,114.29,0,0,0,9.35,8.63,136.93,136.93,0,0,0,15.14,11.86c5.1,3.31,10.25,6.56,15.56,9.51,3.35,1.86,7.07,3,10.56,4.67,6.26,2.93,13,4.18,19.7,5.47,3.75.73,7.71.54,11.58,1,6.26.67,12.65.36,19,.13s12.36.46,18.62-.76c5.2-1,10.71,0,16.07-1.11,3.61-.76,7.52-.23,11-1.2,4.89-1.35,10-1.37,14.81-2.81,3.6-1.07,7.52-1.12,11-2.37,9.44-3.36,19-6.38,27.67-11.66a117.87,117.87,0,0,0,19.1-14.12c7.06-6.58,14-13.33,19.59-21.3a161.45,161.45,0,0,0,9.8-15c3.23-5.83,5-12.28,7-18.55,1.6-4.89,2-10.15,3-15.23a83.76,83.76,0,0,0,1.07-13.55C667.13,1005.88,667,1000.21,667,994.55Z" transform="translate(-23.41 -350.3)"/><path class="cls-1" d="M1272.88,827.67c-2,5.8-5.68,9.79-9.12,13.63-7,1.2-12.38-2.52-17.84-5.51-4.89-2.68-9.64-5.58-15-7.33-.57-.19-1-.72-1.59-1-7.16-3.23-14.2-6.78-21.54-9.56s-14.18-6-21.36-8.78c-5.27-2-10.55-4.29-15.76-6.6-5.77-2.55-11.71-4.71-17.58-7-2.57-1-5.23-1.89-7.7-3.14-6.89-3.48-14.23-5.87-21.36-8.77-4.13-1.67-8.28-3.34-12.45-5-5.46-2.1-11-4-16.45-6.13-3.74-1.43-7.4-3.07-11.15-4.46-8.38-3.11-16.54-6.77-25-9.62-4.21-1.41-8.27-3.34-12.44-5-4.47-1.73-4.39-2-7.7-1.94-9.53.09-19,1.63-28.58,1-6.79,1.89-13.82.06-20.56,1.15-7.57,1.22-15.19-.15-22.58,1s-14.83-.13-22.09.95c-8.06,1.21-16.18-.1-24.08,1.05s-15.75.45-23.61.78c-6.21.27-12.33,1.43-18.59,1.1s-12.33-.07-18.5-.07h-19c-6.16,0-12.33.14-18.49,0-4.87-.15-9.67-1.45-14.59-1-1.86-1.34-4-1-6.09-1s-3.7-.84-5.55-1.18a114.3,114.3,0,0,1-21.42-6.15,227.8,227.8,0,0,1-20.81-10.06,89.1,89.1,0,0,1-15-9.68,81.88,81.88,0,0,1-6.56-5.76,6.69,6.69,0,0,1-.88-1.54c2.5-2,4.73-.09,6.53.55,5.21,1.84,10.06,4.67,15.18,6.78,7.54,3.11,15.21,5.93,22.82,8.88,5.11.05,9.54,3.26,14.69,3.15,2.33,1.54,5.16,1.06,7.71,1.89s5.52.31,8,1.23,5.4.06,7.55,1.05c2.66,1.23,5.23.15,7.65.89,3.67,1.13,7.5.31,11.08,1,8.37,1.74,16.75.49,25.11.84,5.16.22,10.33.17,15.5,0,7.19-.21,14.42-.3,21.56-1.13,2.86-.33,5.75-.52,8.59-.92s5.44-.62,8.07-1.11c2-.37,4.24-.25,6.06-1s3.86-.38,5.62-.93c5.22-1.65,10.86-1.52,15.89-3.85,9.65-1.22,18.36-5.63,27.64-8.15,3.83-1,7.39-3,11.09-4.56,3.9-1.63,8.07-2.31,12.14-3.24,2.78-.64,5.59.51,8.17,1.85,6.16,3.2,12.28,6.52,18.56,9.49a96.46,96.46,0,0,0,13.69,5.57c3,.87,5.74,2.23,8.71,3.14,3.42,1,6.91,1.75,10.33,2.77,5.8,1.73,11.71,3.06,17.54,4.7,10,2.81,19.89,5.81,29.65,9.31,6.53,2.34,13.18,4.3,19.68,6.8,4.85,1.87,9.86,3.57,14.81,5.31,4.77,1.68,9.4,3.92,14.12,5.69,5.49,2.07,10.75,4.67,16.29,6.56,5.1,1.74,10.07,3.88,15.11,5.79,6.32,2.39,12.79,4.48,19,7.27a80.23,80.23,0,0,0,9.59,3.36c3.12.94,5.88,2.74,9.17,3.31s6.48,2,9.73,3c3.08,1,6.13,2.08,9.23,3,6.92,2.18,13.86,4.33,20.65,6.87,5.33,2,11,3.36,15.6,7A26.45,26.45,0,0,1,1272.88,827.67Z" transform="translate(-23.41 -350.3)"/><path class="cls-1" d="M1764.38,935.56l8.32-1.26c1.2,4.36-1.68,6.51-3.9,8.77l-3.27.93c-.73-.18-1.8-.85-2.42-.55-2.89,1.38-6.27,2.13-7.57,5.79-.61,1.71-1.9,3.19-3,5-2.24,1-4.65,2-7.38.26-.6-.39-2,.45-3.1.74.74,2.28,1.7,4.11,1.84,6s-.57,3.71-.91,5.58c-5.29,5.67-8.76,7.09-17.21,6.57-1.91-1.3-4.2-2-5.11-4.64-.36-1.05-2.17-1.69-3.42-2.33a77.21,77.21,0,0,0-13.6-5.74c-2-.58-4.21-.1-6.81-.1q.67,5.75,1.32,11.32c-2.54,1.82-4.77,3.89-7.84,1.49-3.46.6-5.89-1.94-8.7-3.13a22,22,0,0,1-7.76-5.44c-.6-.66-1.73-.83-2.35-1.47-1-1-2.48-1.72-2.71-3.82a55,55,0,0,1,6-.08,8.87,8.87,0,0,0,8.2-3.62c.25-3.4-1.45-6.47-2.73-9.62-1.6-3.92-2.32-8-3.25-12.14a40.25,40.25,0,0,1-1-5.08c-.17-1.81.53-3.91-.16-5.43-1.38-3-1.09-6.16-.76-9.12.52-4.78.76-9.73,3.6-14.3a31.74,31.74,0,0,1,12.7-3.65,34,34,0,0,1,7,0c7,1.09,14,1.76,21,3.56,6.51,1.68,12.6,4.26,18.85,6.49,2.72,1,5.09,3.09,7.45,4.91,6.18,4.78,11.9,10,15.79,17,.84,1.49,1.79,3,1.6,4.87C1763,933.88,1763.8,934.59,1764.38,935.56Z" transform="translate(-23.41 -350.3)"/><path class="cls-1" d="M631.26,845.37c-2.78-.47-5-.65-7-1.23-10.26-2.89-20.43-6-30.46-9.66-6.1-2.2-12.16-4.46-18.4-6.26-2.7-.77-5.49-1.2-8.12-2.1a61.68,61.68,0,0,0-7.78-1.79c-5.86-1.22-11.79-1.35-17.66-2.08a119.32,119.32,0,0,0-14.6-.7c-3.36,0-6.71.73-10.08.9s-7.12-.56-10.45.2-6.84.25-10.08,1c-2.57.59-5.41,0-7.52,1-2.42,1.16-5,.31-7.35,1.64-2,1.14-4.76,1.52-7.14,1.92a67.68,67.68,0,0,0-14.21,4.37A131.1,131.1,0,0,0,440.73,842c-5.49,3.34-10.66,7.11-16.08,10.52a75.62,75.62,0,0,0-6.37,5.16c-6.45,5.15-12,11.27-18,16.9-4.23,4-8.76,7.66-13.3,11.29-1.54,1.22-3.53,1.86-5.84,3,0-1.35-.3-2.38.05-3.09a104.89,104.89,0,0,1,13.36-21.43c3.09-3.7,5.61-8.12,9.33-11,4.51-3.49,8.16-7.82,12.67-11.31,3.53-2.74,7.09-5.65,10.75-8.08a128.65,128.65,0,0,1,13.59-8.07c6.66-3.3,13.67-5.62,20.55-8.28,2.17-.84,4.67-.77,7-1.16,1.86-.3,3.72-.67,5.58-1s3.9.67,5.64-.94c.45-.41,1.61-.06,2.44-.06,3.83,0,7.67-.1,11.49,0,6.06.21,12-1.45,18.08-1.1s12.32.14,18.48.06c4.23-.05,8.27,1.48,12.58,1.1a52.44,52.44,0,0,1,12.46.09c2.54.38,5.07.58,7.6.9a57,57,0,0,1,7,1.07c5.66,1.5,11.42,2.74,16.87,5,11.36,4.81,22.43,10.22,33.38,15.86C624,839.54,628.14,841.38,631.26,845.37Z" transform="translate(-23.41 -350.3)"/><path class="cls-1" d="M346.72,1018.39c-5.85-5.46-11.37-10.9-17.2-16a152.09,152.09,0,0,0-19.86-14.79,129.47,129.47,0,0,0-18.9-9.85c-8.26-3.37-16.28-7.48-25.08-9.43-5.86-3.73-13.09-3.68-19.12-6.94-4.75-.27-9.13-2.14-13.73-3.09a23.35,23.35,0,0,1-7.74-3h2.34c4.83,0,9.68.26,14.49-.06,6.27-.42,12.35,1.54,18.59,1.06,2.22,1.34,4.85.42,7,1.14,2.41.78,4.9.25,7.09,1,4.69,1.52,9.59,1.89,14.33,2.62s9.66,2,14.62,2.43a101.56,101.56,0,0,1,13.13,2c4.95,1.11,9.78.39,14.64.75a6.84,6.84,0,0,0,2.26-.74c2.42,1,3.71,2.89,4.5,5.73,1.18,4.23,2.19,8.44,3.1,12.73s1.94,8.93,2.53,13.32c.66,4.89,2.26,9.62,2.4,14.62C346.2,1013.9,347.36,1015.87,346.72,1018.39Z" transform="translate(-23.41 -350.3)"/><path class="cls-1" d="M470,1153.71v2l-2.84,1.45c-4.91,0-10.23.1-15.54,0a47.52,47.52,0,0,1-6.57-1c-2.18-.38-4.32.24-6.66-.79-2-.88-4.65-.76-7-1.05a87.41,87.41,0,0,1-9.32-1.71c-2.84-.67-5.75-1.75-8.51-2.14-3.84-.55-7.16-2.22-10.61-3.46a16.85,16.85,0,0,1-7.49-5.94c-3.44-4.64-5.22-10.12-7.39-15.38-.46-1.11.26-5,1-7l2.39-1.23c4.12,1.91,8.33,3.77,12.47,5.78,6.37,3.09,12.85,6,19,9.5,5,2.84,10,5.47,15.17,8,5.38,2.63,10.86,5.08,16.4,7.36a24.76,24.76,0,0,0,6,1.12C464.16,1149.67,467.57,1150.68,470,1153.71Z" transform="translate(-23.41 -350.3)"/><path class="cls-1" d="M764.33,902.4c-3.9.18-7.2-1.46-10.72-3.65a124.34,124.34,0,0,1-20.46-15.61,25,25,0,0,1-6.1-8.57l1.27-3.57,5.5-5.49c4.11-1.75,8.72-.92,13.25-1.06,3.85-.12,7.48,1.11,10.9,2.58,4.62,2,7.46,5.92,9,10.58s2.71,9.63,2,14.59C768.36,895.85,768.15,899.89,764.33,902.4Z" transform="translate(-23.41 -350.3)"/><path class="cls-1" d="M1411.85,808.82c-2.11,4.67-6,7.08-9.63,9.64-1.65,1.15-3.5,2-5.22,3-3.77,2.3-7.7,3.84-13,2.62-4.12-2.38-7.5-6.68-10.92-10.44v-8c1.48-1.11,3.09-2.89,5.09-3.63a18.08,18.08,0,0,1,7.36-1.55c2.32.14,5.06-.74,6.87.23,2.18,1.17,4.35,0,6.11.94,2,1,4.21,1,6.23,1.83C1407.63,804.63,1410.21,806.11,1411.85,808.82Z" transform="translate(-23.41 -350.3)"/><path class="cls-1" d="M540.86,828.84l1.76-.7c7.38-1.28,14.78.58,22.14,2.61a128.06,128.06,0,0,1,16.09,5.82c6,2.57,12,5.39,16.41,10.85-.87,1.46-2,1.16-3,.8a135,135,0,0,1-18.73-7.85,92.31,92.31,0,0,0-12-4.86,102,102,0,0,0-9.68-3.28c-3.08-.79-6.48-.91-9.38-2.64-.83-.5-2.19-.08-3.31-.08Z" transform="translate(-23.41 -350.3)"/><path class="cls-1" d="M1648.1,923.89l1.64-1.8a50.07,50.07,0,0,1,5.53,2.15c1.22.64,4.23,5.83,4.73,7.48,1.51,5.06,2.55,10.18,1.78,15.69-5.71-4.62-9.59-10.36-12.77-16.62A11.19,11.19,0,0,1,1648.1,923.89Z" transform="translate(-23.41 -350.3)"/><path class="cls-1" d="M785.43,396.54c-4.18.59-7.57,1.48-11.18,1.45-3.44,0-6.66-.91-10.1-1.36,1.52-1.59,3.32-1.85,5.35-1.78,3.33.11,6.68.18,10,0C781.55,394.69,783.2,395.45,785.43,396.54Z" transform="translate(-23.41 -350.3)"/><path class="cls-2" d="M630.5,845l-3.5-2" transform="translate(-23.41 -350.3)"/><path class="cls-2" d="M231.5,956.86l-6-1" transform="translate(-23.41 -350.3)"/><path class="cls-2" d="M2075.5,992.83l-8,1" transform="translate(-23.41 -350.3)"/><path class="cls-2" d="M658.5,863l4,4" transform="translate(-23.41 -350.3)"/><path class="cls-2" d="M545.5,829c-1.33-1-2.67-.52-4,0" transform="translate(-23.41 -350.3)"/><path class="cls-2" d="M698.5,1064.76l-3,3" transform="translate(-23.41 -350.3)"/><path class="cls-2" d="M1740.5,818l-4-1" transform="translate(-23.41 -350.3)"/><path class="cls-2" d="M391.5,1117.71v1.5" transform="translate(-23.41 -350.3)"/><path class="cls-2" d="M784.5,396.38c-1.5.16-3-1.22-4.5,0" transform="translate(-23.41 -350.3)"/><path class="cls-2" d="M768.5,396.38c-1.33-1.42-2.67.47-4,0" transform="translate(-23.41 -350.3)"/><path class="cls-2" d="M1411.5,809H1410" transform="translate(-23.41 -350.3)"/><path class="cls-2" d="M333.5,965.85v1.5" transform="translate(-23.41 -350.3)"/></svg>