<?xml version="1.0" encoding="UTF-8" standalone="no"?>
<!DOCTYPE svg PUBLIC "-//W3C//DTD SVG 1.1//EN" "http://www.w3.org/Graphics/SVG/1.1/DTD/svg11.dtd">
<svg version="1.1" xmlns="http://www.w3.org/2000/svg" xmlns:xlink="http://www.w3.org/1999/xlink" preserveAspectRatio="xMidYMid meet" viewBox="-0.7880000000000005 -0.2610000000000001 147.66400000000002 53.528000000000006" width="143.66" height="49.53"><defs><path d="M0.87 14.34C0.87 15.2 0.87 15.67 0.87 15.77C0.87 16.51 1.06 17.19 1.44 17.82C1.82 18.45 2.33 19.01 2.98 19.49C3.63 19.97 4.39 20.35 5.26 20.62C6.14 20.89 7.07 21.03 8.05 21.03C8.91 21.03 9.72 20.92 10.5 20.71C11.27 20.5 11.97 20.21 12.59 19.84C13.21 19.47 13.73 19.03 14.16 18.53C14.59 18.03 14.89 17.47 15.06 16.87C13.93 16.3 4.85 11.72 3.72 11.15C2.75 10.62 1.99 9.95 1.43 9.14C0.86 8.33 0.58 7.44 0.58 6.47C0.58 5.67 0.78 4.93 1.18 4.23C1.57 3.53 2.11 2.93 2.79 2.41C3.47 1.9 4.26 1.49 5.18 1.19C6.09 0.89 7.05 0.74 8.08 0.74C8.86 0.74 9.6 0.83 10.32 1C11.04 1.18 11.7 1.42 12.3 1.74C12.9 2.06 13.43 2.44 13.9 2.88C14.36 3.31 14.74 3.79 15.03 4.31C15.03 4.09 15.03 2.98 15.03 0.97L15.61 0.97L15.61 6.79L15.03 6.79C15.03 6.37 15.03 6.13 15.03 6.09C14.95 5.49 14.71 4.9 14.3 4.33C13.9 3.76 13.37 3.25 12.73 2.8C12.09 2.36 11.37 2 10.55 1.73C9.74 1.46 8.89 1.32 7.99 1.32C7.26 1.32 6.56 1.4 5.89 1.57C5.22 1.73 4.61 1.96 4.06 2.25C3.5 2.54 3.01 2.89 2.59 3.3C2.16 3.71 1.83 4.15 1.6 4.64C2.73 5.2 11.8 9.76 12.94 10.33C13.89 11.01 14.62 11.81 15.15 12.72C15.67 13.63 15.89 14.64 15.81 15.74C15.81 16.54 15.61 17.29 15.2 17.99C14.8 18.7 14.24 19.32 13.53 19.85C12.82 20.39 12 20.81 11.06 21.12C10.12 21.43 9.12 21.58 8.05 21.58C7.24 21.58 6.46 21.49 5.73 21.31C4.99 21.12 4.31 20.87 3.69 20.55C3.07 20.23 2.52 19.85 2.03 19.4C1.55 18.96 1.16 18.47 0.87 17.95C0.87 18.17 0.87 19.3 0.87 21.32L0.29 21.32L0.29 14.34L0.87 14.34Z" id="b5nOv8iKB"></path><path d="M46.95 0.97L46.95 5.04L46.37 5.04L46.37 1.55L41.13 1.55L41.13 20.74L43.46 20.74L43.46 21.32L34.74 21.32L34.74 20.74L37.07 20.74L37.07 1.55L31.83 1.55L31.83 5.04L31.25 5.04L31.25 0.97L46.95 0.97Z" id="b162rIPEAa"></path><path d="M81.57 0.97L81.57 1.55L79.51 1.55L74.07 10.42L74.07 20.74L76.4 20.74L76.4 21.32L67.68 21.32L67.68 20.74L70 20.74L70 11.29L64.42 1.55L62.36 1.55L62.36 0.97L71.37 0.97L71.37 1.55L69.13 1.55L73.81 9.66L78.78 1.55L76.75 1.55L76.75 0.97L81.57 0.97Z" id="caS2I5sDrc"></path><path d="M99.3 20.74L99.3 1.55L96.98 1.55L96.98 0.97L105.7 0.97L105.7 1.55L103.38 1.55L103.38 20.74L112.1 20.74L112.1 15.51L112.68 15.51L112.68 21.32L96.98 21.32L96.98 20.74L99.3 20.74Z" id="a9TX6CldU"></path><path d="M130.41 20.74L130.41 1.55L128.08 1.55L128.08 0.97L143.78 0.97L143.78 6.79L143.2 6.79L143.2 1.55L134.48 1.55L134.48 10.86L139.71 10.86L139.71 8.09L140.29 8.09L140.29 14.49L139.71 14.49L139.71 11.44L134.48 11.44L134.48 20.74L143.2 20.74L143.2 15.51L143.78 15.51L143.78 21.32L128.08 21.32L128.08 20.74L130.41 20.74Z" id="a4PwSuWEZB"></path><path d="M14.17 31.15C12.85 30.33 11.39 29.92 9.81 29.92C8.88 29.92 8 30.06 7.17 30.35C6.35 30.64 5.58 31.04 4.86 31.54C4.86 33.19 4.86 46.4 4.86 48.06C5.58 48.58 6.35 48.98 7.17 49.26C8 49.54 8.88 49.68 9.81 49.68C10.7 49.68 11.55 49.55 12.38 49.28C13.2 49.01 13.97 48.62 14.67 48.13C15.38 47.64 16.01 47.04 16.56 46.34C17.12 45.64 17.58 44.88 17.95 44.04C18.01 44.04 18.49 44.04 18.56 44.04C18.19 44.96 17.71 45.79 17.12 46.56C16.52 47.33 15.85 47.98 15.1 48.54C14.34 49.09 13.51 49.52 12.61 49.82C11.71 50.12 10.77 50.27 9.81 50.27C8.49 50.27 7.25 49.99 6.08 49.44C4.92 48.89 3.9 48.14 3.03 47.2C2.16 46.26 1.47 45.16 0.97 43.89C0.46 42.62 0.21 41.26 0.21 39.8C0.21 38.35 0.46 36.99 0.97 35.72C1.47 34.45 2.16 33.34 3.03 32.4C3.9 31.46 4.92 30.72 6.08 30.17C7.25 29.61 8.49 29.34 9.81 29.34C11.34 29.34 12.76 29.71 14.06 30.44C15.37 31.18 16.47 32.17 17.36 33.41C17.36 33.15 17.36 31.89 17.36 29.63L17.95 29.63L17.95 35.47L17.36 35.47L17.36 34.45C16.11 32.8 15.04 31.7 14.17 31.15Z" id="afyv8S7NG"></path><path d="M31.71 29.36L32.03 29.39L32.35 29.43L32.66 29.48L32.97 29.54L33.28 29.62L33.59 29.7L33.89 29.8L34.19 29.91L34.48 30.03L34.78 30.16L35.06 30.31L35.35 30.46L35.62 30.61L35.89 30.78L36.15 30.96L36.41 31.14L36.66 31.33L36.91 31.53L37.15 31.73L37.38 31.95L37.61 32.17L37.83 32.4L38.04 32.64L38.25 32.89L38.45 33.14L38.64 33.4L38.82 33.66L39 33.94L39.17 34.22L39.33 34.5L39.48 34.8L39.62 35.1L39.76 35.4L39.89 35.72L40.01 36.04L40.12 36.36L40.22 36.69L40.31 37.02L40.39 37.35L40.46 37.69L40.52 38.03L40.56 38.38L40.6 38.73L40.63 39.08L40.64 39.44L40.65 39.8L40.64 40.16L40.63 40.52L40.6 40.87L40.56 41.22L40.52 41.57L40.46 41.91L40.39 42.25L40.31 42.58L40.22 42.92L40.12 43.24L40.01 43.57L39.89 43.89L39.76 44.2L39.62 44.51L39.48 44.81L39.33 45.1L39.17 45.39L39 45.67L38.82 45.94L38.64 46.2L38.45 46.46L38.25 46.71L38.04 46.96L37.83 47.2L37.61 47.43L37.38 47.65L37.15 47.87L36.91 48.07L36.66 48.27L36.41 48.46L36.15 48.65L35.89 48.82L35.62 48.99L35.34 49.14L35.06 49.29L34.78 49.44L34.48 49.57L34.19 49.69L33.89 49.8L33.59 49.9L33.28 49.98L32.97 50.06L32.66 50.12L32.35 50.17L32.03 50.21L31.71 50.24L31.38 50.26L31.05 50.27L30.73 50.26L30.4 50.24L30.08 50.21L29.76 50.17L29.45 50.12L29.14 50.06L28.83 49.98L28.52 49.9L28.22 49.8L27.92 49.69L27.63 49.57L27.33 49.44L27.05 49.29L26.76 49.14L26.49 48.99L26.22 48.82L25.96 48.64L25.7 48.46L25.45 48.27L25.2 48.07L24.96 47.87L24.73 47.65L24.5 47.43L24.28 47.2L24.07 46.96L23.86 46.71L23.66 46.46L23.47 46.2L23.29 45.94L23.11 45.67L22.94 45.39L22.78 45.1L22.63 44.81L22.49 44.51L22.35 44.2L22.22 43.89L22.1 43.57L21.99 43.24L21.89 42.92L21.8 42.58L21.72 42.25L21.65 41.91L21.59 41.57L21.55 41.22L21.51 40.87L21.48 40.52L21.47 40.16L21.46 39.8L21.47 39.44L21.48 39.08L21.51 38.73L21.55 38.38L21.59 38.03L21.65 37.69L21.72 37.35L21.8 37.02L21.89 36.69L21.99 36.36L22.1 36.04L22.22 35.72L22.35 35.4L22.49 35.09L22.63 34.79L22.78 34.5L22.94 34.21L23.11 33.94L23.29 33.66L23.47 33.4L23.66 33.14L23.86 32.89L24.07 32.64L24.28 32.4L24.5 32.17L24.73 31.95L24.96 31.73L25.2 31.53L25.45 31.33L25.7 31.14L25.96 30.96L26.22 30.78L26.49 30.61L26.77 30.46L27.05 30.31L27.33 30.16L27.63 30.03L27.92 29.91L28.22 29.8L28.52 29.7L28.83 29.62L29.14 29.54L29.45 29.48L29.76 29.43L30.08 29.39L30.4 29.36L30.73 29.34L31.06 29.33L31.38 29.34L31.71 29.36ZM30.5 29.93L30.23 29.96L29.96 29.99L29.7 30.03L29.44 30.07L29.18 30.13L28.92 30.2L28.67 30.27L28.42 30.35L28.18 30.44L27.94 30.54L27.7 30.64L27.46 30.75L27.23 30.87L27 30.99L26.77 31.12L26.55 31.25L26.33 31.4L26.11 31.54L26.11 48.06L26.33 48.21L26.55 48.36L26.77 48.49L27 48.63L27.23 48.75L27.46 48.87L27.7 48.98L27.94 49.08L28.18 49.18L28.42 49.26L28.67 49.34L28.92 49.41L29.18 49.48L29.44 49.53L29.7 49.58L29.96 49.62L30.23 49.65L30.5 49.67L30.78 49.68L31.06 49.68L31.33 49.68L31.61 49.67L31.88 49.65L32.15 49.62L32.41 49.58L32.67 49.53L32.93 49.48L33.19 49.41L33.44 49.34L33.69 49.26L33.93 49.18L34.17 49.08L34.41 48.98L34.65 48.87L34.88 48.75L35.11 48.63L35.34 48.49L35.56 48.36L35.78 48.21L36 48.06L36 31.54L35.78 31.4L35.56 31.25L35.34 31.12L35.11 30.99L34.88 30.87L34.65 30.75L34.41 30.64L34.17 30.54L33.93 30.44L33.69 30.35L33.44 30.27L33.19 30.19L32.93 30.13L32.67 30.07L32.41 30.02L32.15 29.99L31.88 29.96L31.61 29.93L31.33 29.92L31.06 29.92L30.78 29.92L30.5 29.93Z" id="bBr2FGXtE"></path><path d="M45.88 49.39L45.88 30.21L43.56 30.21L43.56 29.63L49.57 29.63L60.42 48.93L60.42 30.21L58.09 30.21L58.09 29.63L63.03 29.63L63.03 30.21L61 30.21L61 49.97L56.87 49.97L46.46 31.4L46.46 49.39L48.79 49.39L48.79 49.98L43.56 49.98L43.56 49.39L45.88 49.39Z" id="a2bnwFqVKN"></path><path d="M68.26 49.39L68.26 30.21L65.94 30.21L65.94 29.63L71.96 29.63L82.8 48.93L82.8 30.21L80.47 30.21L80.47 29.63L85.42 29.63L85.42 30.21L83.38 30.21L83.38 49.97L79.25 49.97L68.85 31.4L68.85 49.39L71.17 49.39L71.17 49.98L65.94 49.98L65.94 49.39L68.26 49.39Z" id="f2VeMOH4u7"></path><path d="M90.65 49.39L90.65 30.21L88.32 30.21L88.32 29.63L104.02 29.63L104.02 35.44L103.44 35.44L103.44 30.21L94.72 30.21L94.72 39.51L99.95 39.51L99.95 36.75L100.53 36.75L100.53 43.14L99.95 43.14L99.95 40.09L94.72 40.09L94.72 49.39L103.44 49.39L103.44 44.16L104.02 44.16L104.02 49.97L88.32 49.97L88.32 49.39L90.65 49.39Z" id="eF0Y9gncr"></path><path d="M120.88 31.15C119.56 30.33 118.11 29.92 116.52 29.92C115.59 29.92 114.71 30.06 113.89 30.35C113.07 30.64 112.3 31.04 111.58 31.54C111.58 33.2 111.58 46.4 111.58 48.06C112.3 48.58 113.07 48.98 113.89 49.26C114.71 49.54 115.59 49.68 116.52 49.68C117.41 49.68 118.27 49.55 119.09 49.28C119.92 49.01 120.68 48.62 121.39 48.13C122.1 47.64 122.73 47.04 123.28 46.34C123.83 45.65 124.29 44.88 124.66 44.05C124.72 44.05 125.21 44.05 125.27 44.05C124.9 44.96 124.42 45.8 123.83 46.56C123.24 47.33 122.57 47.99 121.81 48.54C121.06 49.09 120.23 49.52 119.33 49.82C118.43 50.12 117.49 50.27 116.52 50.27C115.2 50.27 113.96 49.99 112.8 49.44C111.64 48.89 110.62 48.14 109.75 47.2C108.87 46.26 108.19 45.16 107.68 43.89C107.18 42.62 106.93 41.26 106.93 39.8C106.93 38.35 107.18 36.99 107.68 35.72C108.19 34.45 108.87 33.34 109.75 32.4C110.62 31.47 111.64 30.72 112.8 30.17C113.96 29.61 115.2 29.34 116.52 29.34C118.05 29.34 119.47 29.71 120.78 30.44C122.09 31.18 123.19 32.17 124.08 33.41C124.08 33.16 124.08 31.9 124.08 29.63L124.66 29.63L124.66 35.47L124.08 35.47L124.08 34.45C122.83 32.8 121.76 31.7 120.88 31.15Z" id="hbblQpZ3u"></path><path d="M143.88 29.63L143.88 33.7L143.29 33.7L143.29 30.21L138.06 30.21L138.06 49.39L140.39 49.39L140.39 49.98L131.67 49.98L131.67 49.39L133.99 49.39L133.99 30.21L128.76 30.21L128.76 33.7L128.18 33.7L128.18 29.63L143.88 29.63Z" id="c5TyaYuwol"></path></defs><g><g><use xlink:href="#b5nOv8iKB" opacity="1" fill="#ffffff" fill-opacity="1"></use><g><use xlink:href="#b5nOv8iKB" opacity="1" fill-opacity="0" stroke="#000000" stroke-width="1" stroke-opacity="0"></use></g></g><g><use xlink:href="#b162rIPEAa" opacity="1" fill="#ffffff" fill-opacity="1"></use><g><use xlink:href="#b162rIPEAa" opacity="1" fill-opacity="0" stroke="#000000" stroke-width="1" stroke-opacity="0"></use></g></g><g><use xlink:href="#caS2I5sDrc" opacity="1" fill="#ffffff" fill-opacity="1"></use><g><use xlink:href="#caS2I5sDrc" opacity="1" fill-opacity="0" stroke="#000000" stroke-width="1" stroke-opacity="0"></use></g></g><g><use xlink:href="#a9TX6CldU" opacity="1" fill="#ffffff" fill-opacity="1"></use><g><use xlink:href="#a9TX6CldU" opacity="1" fill-opacity="0" stroke="#000000" stroke-width="1" stroke-opacity="0"></use></g></g><g><use xlink:href="#a4PwSuWEZB" opacity="1" fill="#ffffff" fill-opacity="1"></use><g><use xlink:href="#a4PwSuWEZB" opacity="1" fill-opacity="0" stroke="#000000" stroke-width="1" stroke-opacity="0"></use></g></g><g><use xlink:href="#afyv8S7NG" opacity="1" fill="#ffffff" fill-opacity="1"></use><g><use xlink:href="#afyv8S7NG" opacity="1" fill-opacity="0" stroke="#000000" stroke-width="1" stroke-opacity="0"></use></g></g><g><use xlink:href="#bBr2FGXtE" opacity="1" fill="#ffffff" fill-opacity="1"></use><g><use xlink:href="#bBr2FGXtE" opacity="1" fill-opacity="0" stroke="#000000" stroke-width="1" stroke-opacity="0"></use></g></g><g><use xlink:href="#a2bnwFqVKN" opacity="1" fill="#ffffff" fill-opacity="1"></use><g><use xlink:href="#a2bnwFqVKN" opacity="1" fill-opacity="0" stroke="#000000" stroke-width="1" stroke-opacity="0"></use></g></g><g><use xlink:href="#f2VeMOH4u7" opacity="1" fill="#ffffff" fill-opacity="1"></use><g><use xlink:href="#f2VeMOH4u7" opacity="1" fill-opacity="0" stroke="#000000" stroke-width="1" stroke-opacity="0"></use></g></g><g><use xlink:href="#eF0Y9gncr" opacity="1" fill="#ffffff" fill-opacity="1"></use><g><use xlink:href="#eF0Y9gncr" opacity="1" fill-opacity="0" stroke="#000000" stroke-width="1" stroke-opacity="0"></use></g></g><g><use xlink:href="#hbblQpZ3u" opacity="1" fill="#ffffff" fill-opacity="1"></use><g><use xlink:href="#hbblQpZ3u" opacity="1" fill-opacity="0" stroke="#000000" stroke-width="1" stroke-opacity="0"></use></g></g><g><use xlink:href="#c5TyaYuwol" opacity="1" fill="#ffffff" fill-opacity="1"></use><g><use xlink:href="#c5TyaYuwol" opacity="1" fill-opacity="0" stroke="#000000" stroke-width="1" stroke-opacity="0"></use></g></g></g></svg>